<svg width="159" height="145" viewBox="0 0 159 145" fill="none" xmlns="http://www.w3.org/2000/svg">
<path d="M20.0846 96.4401C19.2935 96.3059 18.7709 96.3059 18.6367 96.3059C18.2411 96.3059 16.9274 96.0446 16.2705 95.7762C16.0092 95.2464 15.4794 95.1193 15.0839 94.5896L13.5018 94.194C12.9791 94.0598 12.3152 93.1416 11.3969 92.7461C7.84418 91.171 4.68696 86.5658 4.42562 83.6699C4.29142 83.2744 3.50741 82.4833 3.37322 81.8265C3.23902 81.0354 3.63455 79.8558 3.23901 78.6692C3.23901 78.535 2.70928 78.1395 2.70928 77.751C2.57508 77.4897 2.44794 76.8328 2.44794 76.3031C2.44794 71.3024 2.70928 69.7273 2.44794 66.8314C2.31374 65.3835 2.31374 59.5988 2.44794 55.5163C2.58214 53.6728 2.18661 49.5974 2.18661 49.2018V44.4625C2.18661 43.9327 1.92527 41.9621 2.05241 40.7755C2.18661 40.5142 2.44794 39.7231 2.44794 39.3276C2.44794 38.932 1.79107 35.1179 1.52974 32.8789C1.52974 32.222 2.05947 30.7741 1.79107 29.7217C1.65687 29.0648 1.26133 28.0124 1.39553 27.0871C1.52973 25.1165 1.26134 21.4296 1.26134 20.9069V16.5631L1 2.74756C1 1.29962 1.52973 0.381409 3.10481 0.381409C4.02302 0.381409 6.12784 0.381409 7.05311 0.515609C7.70998 0.649809 9.8148 0.515609 10.3445 0.515609L16.3976 0.254273C18.2411 0.254273 18.898 1.96355 18.898 2.88882C18.898 3.41856 18.898 3.5457 18.7638 3.94123C18.7638 5.12784 18.898 8.01666 18.6296 9.33747C18.3683 10.7854 18.3683 13.4129 18.3683 13.8084C18.3683 14.3382 18.3683 15.9133 18.5025 17.0999C18.5025 17.7567 18.3683 18.8091 18.2411 19.7344C18.114 20.6597 17.8456 21.705 18.1069 22.6303C18.5025 24.4738 18.6367 26.4444 18.5025 28.0265C18.2411 30.1313 18.6367 33.9454 18.6367 34.341V53.6799C18.6367 54.0754 18.7709 55.7847 18.7709 56.3144C18.7709 56.8441 18.7709 57.7624 18.5095 58.6806L18.7709 59.733C18.7709 60.6512 19.1664 61.8378 18.9051 62.8902C18.9051 63.1515 18.9051 63.2857 18.7709 77.1012C18.7709 81.5722 20.353 84.3339 24.6898 84.3339C26.3991 84.3339 29.0336 83.1473 29.6905 80.9153C30.086 79.4674 30.086 77.7581 30.2202 76.3102L29.6905 24.3466C29.6905 23.9511 29.1607 23.2942 29.1607 22.6374C29.1607 21.1894 29.2949 19.7415 29.0265 18.6891C28.8923 18.2935 29.0265 12.2404 29.0265 11.7177V3.16429L28.8923 2.11188V1.58214C28.8923 0.1342 30.7358 0.268399 31.3927 0.268399L36.7889 0.529735C37.3187 0.529735 42.4465 0 42.842 0C43.2376 0 44.9469 0.791072 45.7379 1.18661C46.1335 1.58214 45.7379 3.15722 45.6037 3.68696L45.9993 59.5988C45.9993 63.8084 46.3948 67.3612 46.529 71.3094C46.529 72.6232 45.9993 75.1235 45.9993 75.6533V76.0488L46.1335 77.1012C46.1335 77.8923 45.9993 78.5492 45.8721 79.3402C45.7379 80.7882 45.6108 82.6317 45.2153 84.3409C44.9539 85.6547 43.7673 87.1026 43.2446 88.4164C43.1104 88.5506 42.5878 88.8119 42.3264 89.2074C42.1922 89.4688 42.1922 90.1257 41.9309 90.5212C40.6172 91.7078 38.9079 93.0215 37.3257 94.3353C36.796 94.7308 35.7506 94.9922 35.0867 95.3877C34.2956 95.7832 34.4298 96.3059 32.9819 96.3059C32.4522 96.3059 27.063 97.097 26.6674 97.097C26.5332 97.097 26.0106 97.097 25.2195 96.9628L20.0917 96.433L20.0846 96.4401ZM5.08956 66.9727V67.3682L5.74643 66.9727L5.48509 66.7113L5.08956 66.9727ZM5.22375 45.9245L5.61929 46.5814L6.14903 46.3201L5.75349 45.6632L5.22375 45.9245ZM7.32857 41.3194L6.79884 40.5283C6.4033 40.3941 6.14196 40.6625 5.88063 40.7896C5.88063 41.1852 5.88063 41.842 6.27617 42.2376C6.8059 42.1034 7.19437 41.5807 7.32857 41.3194ZM6.79884 54.0825L6.14196 53.6869C6.5375 54.2167 6.5375 54.6051 6.5375 54.7393H7.19437L6.79884 54.0825ZM7.98544 69.8686L8.64232 69.473V68.8162L8.77652 68.4206C8.24678 68.682 8.11964 68.682 7.85831 68.8162C7.59697 68.8162 7.32857 68.9504 6.8059 69.0775C6.9401 69.3388 6.9401 69.6072 6.9401 69.7344C7.0743 69.8686 7.20144 69.8686 7.20144 69.8686H7.99251H7.98544ZM9.29919 39.6101C9.43339 39.4759 9.43339 39.3487 9.29919 39.0803L8.50812 37.8937C8.33389 37.9832 8.20205 38.0279 8.11258 38.0279H7.85124L7.45571 38.819C7.32151 39.0803 7.19437 39.3487 7.19437 39.6101C7.72411 40.4012 8.38098 41.4536 9.16499 42.2446C9.25445 41.9809 9.29919 41.8044 9.29919 41.7149L9.43339 41.3194C9.56759 41.1852 9.69472 40.9238 9.69472 40.6625C9.56052 40.4012 9.29919 40.0056 9.16499 39.8714L9.29919 39.6101ZM8.11258 53.03H8.24678C8.38098 53.1642 8.50812 53.1642 8.77652 53.03C8.91072 52.7687 8.91071 52.5003 8.91071 52.1118L9.82892 51.455C9.82892 51.3655 9.78419 51.2784 9.69472 51.1936V51.0594C9.69472 50.9252 9.69473 50.7981 9.56053 50.6639L8.37392 51.0594C8.37392 51.3208 8.37392 51.455 8.50812 51.5892L8.24678 51.7234C8.11258 51.7234 7.98545 51.7234 7.71705 51.8576C7.58285 51.9918 7.58285 52.1189 7.58285 52.2531L7.84418 52.6486C7.84418 52.6486 7.97838 52.6486 7.84418 52.91H8.10552V53.0442L8.11258 53.03ZM8.24678 61.0538L8.50812 61.5835L9.16499 61.188L8.76945 60.6582L8.23972 61.0538H8.24678ZM10.0903 64.211L9.17205 63.4199C8.91072 63.8155 8.64232 64.3381 8.51518 64.995C8.91072 65.1292 9.70179 64.4723 10.0903 64.2039V64.211ZM9.69472 61.4493L10.3516 62.5017L11.1427 61.7106C11.0085 61.4493 10.8813 61.4493 10.7471 61.3151L10.4858 61.0538L9.69472 61.4493ZM10.3516 65.6589L10.7471 65.3976L10.8813 65.6589L10.4858 65.9203L10.3516 65.6589ZM10.8813 45.0063L10.7471 46.0587C10.8366 46.1482 10.9237 46.1929 11.0085 46.1929H11.1427C11.2769 46.1929 11.404 46.1929 11.5382 46.0587C11.9337 45.7974 12.0679 45.0063 11.9337 44.745L10.8813 45.0063ZM12.0679 71.0552C12.5977 70.6596 13.2545 69.7414 12.9861 68.8162C11.9337 69.2117 11.5382 70.0028 11.5382 70.5254L12.0679 71.0552ZM13.5159 65.7931C13.3817 65.7931 13.3817 65.9273 13.3817 65.9273H12.8519C12.7177 66.3229 12.7177 66.4571 12.9861 66.8455C13.2475 67.2411 13.9044 67.7637 14.6954 67.2411C14.9568 67.1069 15.091 66.9797 15.2252 66.7184V66.4571L14.4341 65.4047C14.2999 65.5389 14.0386 65.5389 13.643 65.4047C13.643 65.5389 13.5088 65.666 13.5088 65.666V65.8002L13.5159 65.7931ZM12.859 65.0021C12.9932 65.1363 13.2545 65.1363 13.5159 65.1363C13.5159 65.0021 13.3817 64.6065 13.1203 64.6065C12.9861 64.8679 12.859 65.0021 12.859 65.0021ZM14.5683 62.1062C14.307 61.8448 13.6501 61.972 13.5159 62.1062C13.7772 62.5017 14.1728 62.7631 14.307 62.7631C14.307 62.6289 14.5683 62.3675 14.5683 62.1062ZM14.0386 68.4206V67.6296L13.5088 67.7638V68.5548L14.0386 68.4206ZM17.7255 73.8169V73.2871C17.33 73.2871 16.9344 73.0258 16.6731 73.0258C16.2776 73.0258 15.882 73.4213 15.4865 73.5555C15.6207 73.9511 16.4047 73.9511 16.8002 73.9511L17.4571 73.8169H17.7185H17.7255ZM16.1434 67.6366C16.4047 68.0322 16.5389 68.2935 16.6731 68.4277C16.8073 68.5619 16.9344 68.5619 16.9344 68.689C17.4642 68.689 17.9868 68.4277 18.121 68.0321C17.7255 67.5024 17.33 67.1139 16.9344 67.1139L16.1434 67.6437V67.6366ZM16.8002 91.5807L18.3824 91.4465C18.2482 90.7896 17.5913 90.2598 17.1958 90.1327C16.5389 90.6624 16.8002 91.4465 16.8002 91.5807ZM19.1664 86.7142C19.6961 87.9008 20.6143 87.7666 21.137 87.7666C22.0552 87.7666 22.3236 87.6324 22.585 86.3186C22.4508 86.3186 22.3236 86.0573 19.5619 86.0573C19.4277 86.1915 19.1664 86.587 19.1664 86.7142ZM26.7946 86.8484L27.0559 86.3186L26.6604 86.1844L26.5262 86.7142L26.7875 86.8484H26.7946ZM26.7946 92.3717L27.0559 89.2145H26.6604L26.5262 92.3717H26.7875H26.7946ZM30.4745 84.2138L30.3403 84.8707H31.5269C31.6611 84.7365 31.6611 84.3409 31.5269 84.2138H30.4745ZM32.9748 44.8792V44.4836C32.9748 44.2223 32.4451 43.9539 32.318 43.9539C31.9224 44.0881 31.7953 44.2152 31.7953 44.6108C31.7953 45.1405 31.9295 45.1405 32.318 45.4019C32.7135 45.1405 32.8477 45.0063 32.9748 44.8721V44.8792ZM35.9979 51.5892C34.8112 51.1936 33.6317 51.1936 32.7064 50.7981V51.7163C32.8406 51.7163 33.102 51.3208 33.2362 51.0594C33.6317 51.7163 34.0272 52.7687 34.9454 52.7687C35.341 52.7687 35.8637 52.3732 35.9979 52.1118V51.5892ZM33.4975 36.4599C33.3633 36.8555 33.3633 37.5123 33.4975 37.6465C33.7588 37.3852 34.0272 37.3852 34.1544 37.251C34.1544 36.8555 33.6246 36.4599 33.4975 36.4599ZM33.4975 34.3551L33.893 34.7506C34.4228 34.6164 35.0796 34.2209 35.4752 33.8324L35.341 32.78C34.8113 33.0414 34.1544 33.4369 33.4975 33.8324V34.3622V34.3551ZM33.6317 31.0637C34.1614 31.0637 34.8183 31.325 35.341 31.4592C35.341 31.325 35.6023 31.0637 35.6023 30.8023C35.2068 30.4068 34.9454 30.2726 34.5499 30.2726C34.0202 30.2726 33.7588 30.4068 33.6317 30.6681V31.0637ZM33.6317 42.7744C34.0272 42.9086 34.4228 43.1699 34.8183 43.1699C35.2138 43.1699 36.6618 42.3788 37.4529 42.1175C36.2663 41.4606 35.348 40.5354 34.6912 40.0127C34.4298 40.1469 34.1614 40.274 34.0343 40.4082C33.9001 41.0651 33.6388 41.5948 33.6388 41.9833V42.7744H33.6317ZM33.6317 48.2977C34.4228 48.1635 35.341 47.9022 35.8707 47.6409C35.7365 47.6409 35.4752 47.3795 35.0796 47.3795C34.5499 47.3795 34.0272 48.1706 33.6317 48.2977ZM37.1845 44.2223C37.1845 43.6926 36.9231 43.6926 36.7889 43.5654C36.3934 43.5654 35.0796 43.4312 34.8183 44.4836C34.9525 44.745 35.348 45.1405 35.7365 45.1405C36.125 45.1405 37.1845 44.8792 37.1845 44.2223ZM37.4458 39.6171C37.58 39.4829 37.8413 38.9603 37.8413 38.8261C36.7889 38.1692 37.4458 36.9826 36.7889 36.1915C36.7889 36.3257 36.2663 36.4529 35.9979 36.5871C36.2592 36.9826 35.8637 37.3781 35.8637 37.7737C35.8637 37.9079 36.5205 39.3558 37.4458 39.6171ZM37.0503 31.1979L37.4458 31.3321C37.58 31.3321 37.8413 31.0707 37.8413 31.0707C37.7071 30.8094 37.0503 30.8094 36.9231 31.0707C36.9231 31.0707 37.0573 31.0707 37.0573 31.2049L37.0503 31.1979ZM37.1845 51.3278C37.4458 51.0665 37.58 50.7981 37.58 50.671C37.4458 50.4096 37.0503 50.2754 36.9231 50.2754L37.1845 51.3278ZM37.9755 46.8569L38.8937 46.5955C38.6324 46.3342 38.1027 45.9387 37.9755 45.9387V46.8569ZM38.8937 42.7814C39.0279 42.7814 39.1551 42.3859 39.4235 42.1246C39.1621 41.9904 38.7666 41.9904 38.6324 41.9904C38.6324 41.9904 38.6324 42.6472 38.8937 42.7814ZM38.6324 76.9882L39.0279 76.7269L39.1621 76.9882L38.6324 77.2496V76.9882ZM39.4235 33.3098V32.5187H39.0279V33.3098H39.4235ZM39.5577 38.3105C40.0874 38.4447 39.6919 37.5194 39.6919 37.3923C39.4305 37.7878 39.5577 38.3105 39.5577 38.3105ZM40.4759 34.6235C40.4759 34.0938 40.4759 33.5711 40.3417 33.1756C40.2075 33.7053 39.5506 34.228 39.5506 34.6235H40.4688H40.4759ZM40.4759 64.4865C40.8714 64.4865 41.0056 64.0909 41.267 63.8296C40.8714 63.6954 40.4759 63.8296 40.0803 63.8296C40.3417 64.0909 40.4759 64.3593 40.4759 64.4865ZM40.2145 45.5431C40.0803 45.9387 40.3487 46.4613 40.6101 46.7297H41.267C41.267 46.0728 41.0056 45.8115 41.0056 45.5431H40.2145ZM41.1328 79.3544V78.6975H40.7372V79.3544H41.1328ZM41.6625 53.0442C41.7967 52.7828 42.058 52.3873 42.3194 52.126C42.058 51.8646 41.5283 51.4691 41.4012 51.6033C41.4012 51.8646 41.1398 51.7375 41.1398 52.2602C41.1398 52.6557 41.4012 52.7899 41.6696 53.0512L41.6625 53.0442ZM43.1104 47.1253C42.9762 46.9911 42.7149 46.8639 42.7149 46.8639C42.058 47.1253 41.4012 48.5732 41.4012 48.7074C41.4012 49.2371 41.7967 49.1029 42.058 49.1029C42.5878 48.3119 41.9238 47.7892 43.1104 47.1323V47.1253ZM42.5807 50.0211C42.842 50.1553 43.1104 50.1553 43.2376 50.4167C43.4989 50.1553 43.4989 49.894 43.4989 49.894C43.3647 49.6327 42.842 49.3643 42.5807 49.3643V50.0211ZM42.7149 58.8359L42.5807 59.4928H43.7673C43.9015 59.3586 43.9015 58.9631 43.7673 58.8359H42.7149Z" fill="white"/>
<rect x="16" y="113" width="141" height="27" fill="#2A2A2A"/>
<path d="M91.4928 2.95254C91.62 3.99082 93.4352 4.2451 94.2121 5.15624C95.3776 6.83727 95.2504 8.26402 95.8932 8.26402C96.2816 8.26402 96.0203 8.26402 96.2817 8.13689C96.9315 9.42944 99.1281 16.1677 99.001 16.9446V26.268C97.5742 26.268 95.766 26.7836 95.3776 26.7836H90.2003C89.8118 26.7836 90.3274 27.1721 89.8118 27.1721H85.6658C84.7617 25.2297 85.6658 24.7141 85.6658 23.9371V23.6758L85.2773 23.2873V23.026C85.0159 22.1219 85.1501 20.568 84.8888 19.5297C84.6275 18.103 84.6275 16.5491 83.8505 15.3837C83.2007 14.3454 81.0041 12.5372 79.4502 12.5372C79.0617 12.5372 78.2848 12.7986 77.7692 13.3142C74.6614 15.9063 74.6614 18.2372 74.6614 20.8223C74.6614 26.2609 79.9729 35.1958 82.0424 36.8768C86.9654 43.9964 94.4735 54.0967 98.6195 62.7773C99.008 64.8468 100.435 69.2542 100.173 70.2855C100.046 71.8394 100.689 72.4892 100.689 72.8776C100.689 73.3932 100.428 73.0048 100.301 73.139C100.689 77.9278 99.008 84.9203 95.5118 89.8433C95.2504 90.2318 94.4735 90.3589 94.085 90.6202C92.0155 94.7663 84.5003 96.9629 80.2271 96.9629C79.8387 96.9629 77.5078 96.3131 76.0811 96.3131C70.5153 96.3131 63.7771 91.263 62.4845 85.6972C62.3574 85.5701 61.9689 85.1816 61.7076 85.0474C61.7076 84.5318 61.7076 83.7549 61.5804 83.3664C61.4533 82.9779 61.0648 82.8508 60.8035 82.4623C60.8035 79.8701 60.2879 78.9661 60.1537 77.1508C60.0266 75.4698 60.5422 75.2085 60.415 74.0431C60.2879 72.4892 59.8994 69.6427 59.8994 69.2542C59.8994 68.8658 60.5492 67.8275 60.8035 67.439C61.3191 67.3119 61.8418 67.439 62.3574 67.439H65.7265C66.2421 67.439 67.0191 66.9234 67.796 66.9234C69.3499 66.7963 71.0309 67.0505 73.496 66.7963L73.8844 67.0576C73.8844 67.7074 73.496 69.1271 73.496 69.3884C73.496 69.7769 74.1458 71.7193 74.2729 73.4003C74.4 74.3044 74.4 76.2468 74.6614 77.6735C74.6614 78.1891 74.9227 78.9661 75.177 79.3545C75.4383 79.8701 75.9539 80.7813 76.3424 81.6854C77.8963 82.8508 78.1576 82.7237 79.4502 82.7237C85.0159 82.7237 86.0542 77.1579 86.0542 74.0501C86.0542 73.6616 85.7929 73.5345 85.6658 73.4003C85.4044 71.9735 84.7617 68.7386 83.9847 67.0576C83.9847 66.9305 83.7234 66.1535 83.3349 65.5037C83.2078 63.1729 80.7427 60.3264 78.9346 57.7343C78.9346 57.3458 78.9346 56.696 78.5461 56.3075C76.8651 54.8808 74.7885 51.1302 73.496 50.2191C73.1075 49.1808 71.6807 46.5957 70.261 45.4303C70.9109 44.392 68.9685 43.4879 68.1915 42.3225C67.4146 41.2842 66.6377 39.3418 65.2109 38.0493C64.8224 36.7567 63.2685 34.2917 62.7529 32.9991C62.4916 32.3493 62.2373 30.407 61.976 29.63C61.7146 29.2416 61.0719 28.4646 60.9377 27.6877C60.9377 27.1721 61.199 26.3951 61.0648 26.0066C60.9377 25.7453 60.415 25.1025 60.2879 24.5799C60.415 24.4527 60.415 24.1914 60.2879 20.1795C61.8418 18.11 59.8994 15.5179 61.7146 13.187L63.2685 9.3023C63.5299 8.7867 64.8224 8.26402 64.5611 7.35994C65.5994 6.71013 67.1533 5.67891 67.6689 4.5135C68.3187 4.25216 68.9614 4.12502 69.7384 3.99789C69.8655 3.60941 69.8655 3.0938 70.254 2.70533C73.1004 2.31686 73.1004 1.0243 75.0428 1.0243C75.4313 1.0243 76.2082 1.15144 76.7238 1.15144C77.1123 1.15144 77.6279 0.113159 78.9275 0.113159C79.316 0.113159 81.2584 0.501632 82.4238 0.501632C83.5892 0.501632 84.7546 0.890105 85.4044 0.890105H85.6658L86.3156 0.501632H86.5769C86.9654 0.501632 87.2267 1.15144 87.481 1.27858C88.1308 1.66705 89.0349 1.92839 89.939 2.31686C90.2003 2.18972 90.2003 1.80125 90.4546 1.53991C90.7159 1.66705 91.1044 1.92839 91.4928 2.05552V2.444C91.4928 2.57113 91.3657 2.70533 91.2315 2.83247C91.3586 2.83247 91.3586 2.9596 91.4928 2.9596V2.95254ZM66.2421 80.52V81.0356H67.0191V80.52H66.2421ZM68.8343 86.4742L69.2228 85.6972L68.7071 85.5701L68.3187 86.2199L68.8343 86.4812V86.4742ZM71.9421 91.3972V91.9128H72.8461V91.3972H71.9421ZM80.4885 46.073V46.7228H81.6539V46.073H80.4885ZM83.4691 53.3269V54.6194H83.7304L83.9918 54.7466C84.1189 54.7466 84.2531 54.7466 84.3803 54.4852C84.3803 54.2239 84.2531 54.0967 84.1189 53.9696L83.4691 53.3198V53.3269ZM84.2461 88.8121V87.908H83.7304V88.8121H84.2461ZM85.9271 86.4812C85.9271 86.2199 85.9271 85.7043 85.5386 85.3158C85.4115 85.443 85.4115 85.5772 85.4115 85.5772L85.2843 85.7043C85.1572 85.8314 85.1572 85.9656 84.8959 86.0928C85.2843 86.4812 85.6728 86.4812 85.9341 86.4812H85.9271ZM85.2773 45.5574C85.0159 46.4615 85.2773 47.1113 85.4044 47.6269H86.3085C86.3085 47.2384 86.3085 47.1113 86.1814 46.85C86.1814 46.4615 86.3085 45.9459 86.0542 45.5574H85.2773ZM87.0925 91.5314H86.0542C85.9271 91.5314 85.7929 91.6585 85.7929 91.9199C85.7929 92.047 85.92 92.3083 86.0542 92.4355L87.0925 91.5314ZM86.4427 48.9265C86.704 48.538 86.9583 48.4109 87.3468 48.1496C87.3468 48.0224 87.4739 48.0224 87.7352 47.7611C87.2196 47.7611 86.9583 47.634 86.697 47.634C86.4356 47.634 86.1814 47.634 85.92 47.7611C85.92 48.0224 86.1814 48.538 86.4356 48.9265H86.4427ZM86.1814 88.5507C86.4427 88.5507 86.697 88.6779 86.697 88.8121C87.2126 88.8121 87.601 88.2965 87.601 87.908C87.3397 87.7809 86.8241 87.5195 86.4356 87.5195L86.1743 88.5578L86.1814 88.5507ZM89.162 15.645C88.7735 15.645 88.5122 16.0335 88.5122 16.2948C88.6393 16.4219 88.9007 16.422 89.162 16.422C89.2891 16.1606 89.162 15.7721 89.162 15.645ZM89.162 58.7655V59.4153L90.3274 59.6766V59.0268L89.162 58.7655ZM89.8118 83.6277L90.0731 83.2393C89.946 83.1121 89.946 82.9779 89.946 82.8508C89.8189 82.7237 89.8189 82.4623 89.5575 82.3352C89.2962 82.7237 89.2962 83.3735 89.2962 83.7619C89.5575 83.7619 89.6847 83.6348 89.8118 83.6348V83.6277ZM92.6583 77.4122H91.3657C91.1044 77.6735 90.5888 77.9278 90.3274 78.062C89.9389 78.3233 89.5505 78.7118 89.5505 78.9661V79.4817C89.8118 79.743 90.2003 79.743 90.5888 79.743H91.1044C91.4928 79.4817 92.6583 78.5776 92.6583 78.1891V77.4122ZM89.939 75.4698C89.939 75.5546 89.9813 75.5969 90.0661 75.5969V75.7241C90.0661 75.8512 90.1932 75.9854 90.3274 76.1126C90.843 76.2397 91.3657 76.3739 92.0084 76.501H92.1356L92.3969 76.6282C92.6583 76.7553 92.7854 76.8895 93.0467 76.8895H93.4352L93.6965 76.7624H93.9579V76.3739C94.085 76.2467 94.085 76.1126 94.085 75.8583C94.085 75.4698 93.5694 74.82 93.0467 74.3044C92.9196 74.4315 92.7854 74.5657 92.7854 74.6929L92.5241 74.9542C92.3969 75.0813 92.2627 75.2155 92.1356 75.2155C92.0085 75.2155 91.7471 75.0884 91.3586 74.9542C90.9702 74.8271 90.5817 74.6929 90.3204 74.6929C89.8048 74.6929 89.9319 74.9542 89.9319 74.9542V75.4698H89.939ZM90.4546 63.4272L90.843 62.6502L90.3274 62.5231L89.939 63.1729L90.4546 63.4342V63.4272ZM90.843 56.696L91.1044 56.5688H91.3657C91.3657 56.1804 91.2386 56.0532 91.2386 55.919L90.8501 55.5306C90.3345 55.7919 90.0731 56.3075 90.0731 56.696H90.8501H90.843ZM91.62 69H92.5241C92.5241 68.7386 92.6512 68.6115 92.6512 68.4844V68.3572C92.7783 68.3572 92.7783 68.2301 92.7783 68.0959C92.517 67.9687 92.3899 67.8346 92.3899 67.7074C92.2627 67.5803 92.0014 67.4461 91.8742 67.4461H91.3586L91.0973 68.6115C91.2244 68.7386 91.3586 68.7386 91.3586 68.7386L91.62 69ZM91.8813 79.6159L91.3657 80.1315V80.7813C91.7542 80.9084 92.404 80.9084 92.7925 80.7813V80.0043C92.7925 79.4887 92.5311 79.6159 92.404 79.6159H91.8884H91.8813ZM91.3657 85.7043C92.0155 86.0928 92.6583 86.3541 92.9196 86.3541C92.9196 86.0928 92.9196 85.9656 92.7925 85.8385V85.3229L91.3657 85.7114V85.7043ZM91.8813 9.1681C92.0085 9.1681 92.2698 8.6525 92.3969 8.5183C92.2698 8.5183 92.0084 8.25696 92.0084 8.25696C91.8813 8.5183 91.62 9.0339 91.8813 9.16104V9.1681ZM93.8237 70.0312C93.4352 70.0312 92.9196 70.0312 92.6583 70.1583C92.5311 70.8081 93.1739 71.3237 93.6965 71.4509L94.7348 70.5468L94.6077 69.6427C94.3464 69.6427 94.2192 69.6427 94.0921 69.7699L93.8307 70.0312H93.8237ZM94.862 62.3889L94.6006 63.293C94.7278 63.6814 95.1162 64.0699 95.6389 64.0699C96.1616 64.0699 96.4159 63.5543 96.4159 63.1658C96.4159 62.9045 96.4158 62.6502 96.2887 62.6502L96.1616 62.5231C96.1616 62.5231 96.0344 62.5231 95.9002 62.3959H94.862V62.3889ZM96.1545 81.0356C96.543 80.9084 96.8043 80.6471 96.8043 80.1315C96.8043 79.8701 96.1545 79.0932 95.766 78.8389C95.2504 78.9661 95.1162 79.6159 95.1162 80.0043C95.1162 80.3928 95.3776 80.9084 95.6318 81.4311L96.1474 81.0426L96.1545 81.0356ZM96.1545 77.278V76.2397H95.5047V77.278H96.1545ZM96.9315 75.9854V75.5969C97.0586 75.3356 97.1928 75.2085 97.1928 74.9471H96.2887C96.2887 75.3356 96.1616 75.5969 95.9002 75.9854H96.9385H96.9315ZM98.0969 68.4773C97.7084 68.216 97.5813 68.216 97.3199 68.0888L97.0586 67.9617H96.9315C96.6701 68.4773 96.8043 68.8658 96.8043 69.3884C97.0657 69.3884 97.9697 68.6115 98.0969 68.4844V68.4773ZM101.72 66.4078V63.9498C101.72 64.9881 102.236 65.8922 102.886 66.4078H101.72Z" fill="#D1A644"/>
<path d="M126.06 28.1325L126.25 29.644L127.105 31.438L127.769 31.6287L128.998 34.2774L130.983 35.6053L131.548 36.1703L138.357 37.6819H140.913L144.035 36.6436L144.417 35.7889L147.256 35.0332L150.096 31.3462L150.661 31.1555L152.363 29.5451H154.348L155.011 29.8276L156.523 30.1102L157.088 31.8124L156.707 33.3239L155.195 36.8272L153.111 38.1551L151.692 39.6666L148.57 41.7502L146.769 42.4142H145.914L144.304 43.1699L140.426 44.0246H138.533L134.373 43.2688H132.48L130.969 42.9863L128.793 41.948L126.526 40.9097L124.068 39.6807L122.839 37.4135L121.045 35.9019L120.663 34.673L119.434 32.3068L118.58 31.9254L118.297 28.7117L118.488 26.8187L117.542 21.8957L118.015 19.8121V15.9344L118.77 14.1404L118.862 13.1021L120.374 10.8349L121.511 8.37689L122.366 7.1479L122.839 7.05608L124.167 4.88064L126.434 3.65165L130.502 1.75873L132.395 1.2855L133.342 0.720447L135.99 0.155396L138.448 0.536805L139.395 1.01004L140.716 0.536805L142.7 1.10186L143.555 1.76579L146.013 2.23902L147.814 3.09366L149.043 3.47507L150.371 4.42153L154.249 8.20737L155.569 10.3828L156.134 12.5583L156.7 13.7873L157.363 16.6266L157.173 17.2906L157.738 20.5043L157.074 21.8322L155.089 23.0612H153.387L152.25 23.4426L150.074 23.16L148.655 23.4426L145.815 23.2519L144.777 23.6333L142.51 22.9693L138.441 23.5344L136.358 23.153L134.655 23.9087L132.007 23.5273L131.152 24.0006L127.366 23.5273L126.137 22.9623L124.435 22.5809L123.87 23.4355L125.763 27.3132L126.046 28.1678L126.06 28.1325Z" fill="#D1A644"/>
<path d="M126.06 80.7172L126.25 82.2287L127.105 84.0228L127.769 84.2135L128.998 86.8621L130.983 88.19L131.548 88.7551L138.357 90.2666H140.913L144.035 89.2283L144.417 88.3736L147.256 87.6179L150.096 83.9309L150.661 83.7402L152.363 82.1298H154.348L155.011 82.4124L156.523 82.6949L157.088 84.3971L156.707 85.9086L155.195 89.4119L153.111 90.7398L151.692 92.2513L148.57 94.3349L146.769 94.9989H145.914L144.304 95.7546L140.426 96.6093H138.533L134.373 95.8535H132.48L130.969 95.571L128.793 94.5327L126.526 93.4944L124.068 92.2654L122.839 89.9982L121.045 88.4867L120.663 87.2577L119.434 84.8915L118.58 84.5101L118.297 81.2964L118.488 79.4035L117.542 74.4805L118.015 72.3968V68.5192L118.77 66.7251L118.862 65.6868L120.374 63.4196L121.511 60.9616L122.366 59.7326L122.839 59.6408L124.167 57.4654L126.434 56.2364L130.502 54.3434L132.395 53.8702L133.342 53.3052L135.99 52.7401L138.448 53.1215L139.395 53.5948L140.716 53.1215L142.7 53.6866L143.555 54.3505L146.013 54.8237L147.814 55.6784L149.043 56.0598L150.371 57.0062L154.249 60.7921L155.569 62.9675L156.134 65.143L156.7 66.372L157.363 69.2114L157.173 69.8753L157.738 73.089L157.074 74.4169L155.089 75.6459H153.387L152.25 76.0273L150.074 75.7448L148.655 76.0273L145.815 75.8366L144.777 76.218L142.51 75.5541L138.441 76.1191L136.358 75.7377L134.655 76.4935L132.007 76.112L131.152 76.5853L127.366 76.112L126.137 75.547L124.435 75.1656L123.87 76.0202L125.763 79.8979L126.046 80.7525L126.06 80.7172Z" fill="#D1A644"/>
<path d="M0.282086 143.351V139.925L0.184189 138.815V137.184L0.412616 136.564L0.575778 135.618L0.216821 134.051L0.347351 132.387L0.151556 132.322L0.0862915 132.191L0.347351 130.331L0.282086 130.005V128.471L0.151556 128.406L0.118924 128.275L0.608411 126.872L0.347351 125.567L0.608411 124.816L0.314719 122.63L0.379983 122.401L0.151556 121.129L0.249454 120.215V118.583L0.477881 117.474V113.819L0.314719 113.33V110.915L0.249454 110.523L0.379983 108.892L0.216821 107.39L1.06526 106.705L1.48949 106.738L3.18637 106.575L4.26324 106.803L4.49167 106.607L6.15593 106.868L7.037 106.803L8.04861 106.868L8.73389 106.607L11.1813 106.836H14.8688L15.652 107.064L17.0552 106.803H20.6121L21.1669 107.293L21.0037 108.174L21.2321 109.25L21.1669 109.381L20.7426 109.805L21.1669 111.633L21.0363 112.187L21.2648 113.525L21.1016 114.276L21.069 114.798L21.1995 116.462L21.3626 116.658L20.9058 118.029L21.1995 119.334H21.1669L21.2648 119.464L21.1342 121.031L21.2648 121.586L21.069 122.499L21.2648 123.772L21.3626 125.012L21.2974 125.828L21.069 127.133L21.1995 129.156L21.0363 130.788L21.4605 131.702L21.1995 133.431V136.074L21.33 136.205L21.1995 137.967L21.4932 138.457L21.1669 139.86V143.025L20.3837 143.71L18.3278 143.841L17.6425 143.776L16.6309 143.939H13.7919L13.1066 143.808L11.7361 143.971H10.855L10.0392 143.841H5.53591L4.98116 143.971L4.06745 143.906H2.56636L2.07687 143.776H0.510513L0.282086 143.351ZM12.6172 134.312L12.9435 133.366L12.2908 131.995L11.4424 131.636L10.3329 131.93L10.0066 131.8L9.32127 132.387L8.99495 132.485L8.83179 133.529V134.932L9.25601 135.552L10.235 135.813L11.1161 135.911L12.3561 135.422L12.6824 135.063L12.6172 134.312ZM36.7198 134.736L36.5893 134.606L36.4587 133.823L35.6755 133.496L34.8271 133.431L33.946 133.594L33.2281 133.529L32.2818 133.66L31.5639 133.464L30.6175 133.79L30.3238 133.333L30.5196 132.713L30.3238 131.016L30.487 130.298L30.2912 129.287L30.5849 127.655L30.4217 127.1L30.3565 126.513L29.9322 126.187L30.128 125.828L30.6175 125.795L31.6291 124.947L32.1839 124.327L32.7386 124.261L33.1955 124.033H33.8481L34.8924 123.935L35.5776 124H36.9808L37.3724 123.609V121.912L36.9808 121.586L35.7408 121.227L34.5334 121.325L34.1745 121.259L32.6081 121.553L32.347 121.912L31.8902 122.173L31.3354 122.63L30.8786 123.38L30.5849 123.576L30.3891 124.196L29.867 124.718L30.0301 123.902V122.63L30.0628 122.434L29.8996 121.847L28.9206 121.586H27.8764L26.2121 121.422L25.9511 121.553H25.1679L24.3521 122.01L24.0584 122.597L24.2868 123.38L25.3311 123.707L26.1142 123.837L27.289 123.674L27.8438 123.478L28.3332 123.576L28.0069 124.229L27.9417 125.077L27.6806 125.926L27.8111 126.056L27.6806 126.872L27.8764 127.884L27.7132 129.189V130.396L27.8438 131.571V132.289L28.0069 133.301L28.4311 133.594L27.8438 133.855L27.5174 133.627L26.8648 133.464H25.7879L25.3637 133.562H24.711L24.1563 133.855V134.671L24.1237 135.128L24.3847 135.585L24.9068 135.748H26.1469L26.8648 135.585L27.7132 135.715H29.1164L30.4217 135.748H31.6618L32.4776 135.585L33.4892 135.781H34.9576L36.4914 135.552L36.7198 134.736ZM19.9141 143.384V142.013L19.6856 141.263V138.489L19.8162 137.086L20.0772 136.825L19.9141 135.291L19.5877 134.573L19.8162 133.333L19.9793 133.235L19.7509 131.473L20.012 130.364L19.7835 128.96V128.993L19.653 128.34L20.1425 127.035L19.8814 125.665L20.1425 124.784L19.8814 122.826L19.9467 122.173L19.7183 120.704L19.8488 120.019V118.094L19.9467 117.865V115.908L19.8814 114.929L20.1425 114.439L19.7835 112.579L19.9141 110.621V108.892L19.7835 107.488L20.632 106.673L21.3825 106.77L22.0678 106.444L23.7973 106.836L24.4826 106.738L25.2658 106.966L25.9837 106.901H25.9511L26.7343 106.803L27.1585 106.966L28.268 106.705L29.9975 106.868H30.9438L31.9554 106.77L33.3586 106.901H35.4797L36.5893 106.705L38.5146 106.836H40.0483L40.7009 107.227L40.5378 108.304L40.7662 109.316L40.6683 110.393L40.7009 110.817L40.603 111.796L40.8315 113.134L40.6683 114.178V114.602L40.4072 116.038L40.7336 117.441L40.7009 117.572L40.5378 117.768L40.7336 120.378L40.6357 121.129L40.8315 121.879L40.6357 122.891L40.7662 123.902L40.9946 124.588L40.5704 126.97L40.7009 128.047V129.417L40.5051 130.886L40.7662 131.93L40.7009 132.191V134.573L40.4725 135.781L40.7336 136.858V137.608L41.0925 137.837L41.1578 138L40.7336 139.925V142.699L40.6683 143.612L40.603 143.743L40.0157 143.808L39.5914 143.678L37.0461 143.874H35.6429L34.4681 144.298L32.8039 143.906L32.347 143.874L31.6291 143.971H30.3565L29.4754 143.808H24.9721L23.9279 143.906H22.2636L21.7415 143.743L20.2078 143.906L19.9141 143.384ZM39.5134 143.351V137.967L39.285 137.771L39.2524 137.641L39.644 135.879L39.285 134.802L39.4155 133.66L39.6113 132.648L39.5134 131.277L39.8397 130.918L39.4808 129.287V127.557L39.7092 127.133L39.5134 124.62L39.8397 124.327L39.5461 122.695V121.781L39.3829 121.063L39.5134 119.432V116.658L39.644 116.332V114.309L39.4808 113.362V112.155L39.6766 111.698L39.4808 110.229L39.6113 109.446L39.5461 109.479V108.108L39.4482 107.456L40.2313 106.705L40.7208 106.738L41.863 106.64L42.8419 106.868L44.1472 106.673L45.1588 106.901H47.2147L48.0958 106.705L48.5852 106.673L50.119 106.803H53.8717L54.7854 106.999L56.0907 106.803H59.9413L60.3656 107.162V108.696L60.4308 109.022L60.1371 109.675L60.3656 110.882L60.235 111.894L60.4961 113.525L60.2677 114.341L60.3982 115.288L60.1045 115.777L60.4635 117.213L60.1045 117.931L60.4635 120.084L60.3656 121.455L60.4635 121.912L60.3003 122.467L60.5614 124.653V125.567L60.3982 127.068V128.96L60.235 130.951L60.5614 131.8L60.3982 132.713V134.541L60.1371 135.291L60.4308 136.401L60.3656 137.282L60.594 137.934L60.3003 139.044L60.3656 139.794V143.547L60.2677 143.678L58.7339 143.808H57.9834L56.9718 143.645L55.6012 143.939H53.1864L52.5011 143.776L50.2495 143.971L49.0421 143.874H45.5178L45.3873 143.71L43.8535 143.971L43.0051 143.906H41.6998L41.4061 143.776L40.1661 143.939L39.5134 143.351ZM45.8768 130.69L45.7789 130.396L45.1262 129.058L45.322 128.765L45.9094 128.895L46.3336 129.091L47.6389 129.254L47.9326 129.091L48.8463 129.222L49.4337 128.96L50.1516 129.091L51.5548 128.895L52.338 129.124L52.6969 128.993L53.6759 129.058L54.1654 128.96L54.9159 129.058L55.3075 128.928H55.8949L56.5802 128.504L56.8086 128.047L56.6128 126.937L56.6781 126.709L56.4497 125.73L56.2539 125.306L56.0581 124.555L55.6012 123.805L54.2633 122.499L53.8064 122.173L53.3822 122.042L52.7622 121.749L51.9138 121.586L51.6201 121.357L50.9348 121.161L50.4779 121.325L50.1516 121.161L49.3032 121.031L48.3895 121.227L48.0631 121.422L47.4105 121.586L46.0073 122.238L45.2241 122.662L44.7672 123.413L44.6041 123.446L44.3104 123.87L43.9188 124.718L43.3967 125.501L43.3641 125.86L43.103 126.48V127.818L42.9398 128.536L43.2662 130.233L43.2009 130.886L43.2988 131.995L43.5925 132.126L44.0167 132.942L44.1472 133.366L44.7672 133.888L45.1915 134.671L46.0399 135.095L46.8231 135.454L47.5736 135.813L48.0958 135.911H48.7484L50.1842 136.172H50.8369L52.1748 135.879L52.7296 135.618H53.0233L53.6433 135.389L54.7201 134.671L55.2096 134.149L55.9275 133.692L56.4497 132.485L56.5802 131.963L56.3844 131.375L55.8623 131.277L55.6339 131.18H54.9486L54.3612 131.734L54.1654 131.8L53.1864 133.072L52.2074 133.333L52.0769 133.627L51 133.986H50.119L47.7694 133.464L47.5736 133.268L46.8884 132.811L46.4641 131.897L46.2357 131.832L45.942 131.212L45.8768 130.69ZM54.0675 126.154L54.4917 126.807L54.6549 127.198L54.4265 127.492L53.0233 127.035L52.4359 127.198L51.5874 127.296L50.4779 127.166L49.4011 127.068L48.2263 127.198L47.3452 127.264L46.3989 127.198L45.6483 127.492L45.322 127.362L45.4199 126.839L45.7136 126.448L46.0725 125.665L46.1704 125.273L46.562 124.816L46.921 124.261L48.5526 123.446L49.3032 123.217L49.6947 123.315H50.2495L51.8811 123.576L52.958 124.392L53.5454 125.175L54.0675 126.154ZM76.3101 123.119L76.6364 122.728L76.7996 122.075L76.4732 121.781L75.7227 121.52L74.6785 121.716L74.3848 121.977L73.7974 123.054L73.6342 123.25L73.2753 124.392L72.851 125.143V125.404L72.6552 126.187L71.8394 127.459L71.9047 127.851L71.3499 128.797L70.9257 130.462L70.371 131.212L70.2731 131.734L69.9794 132.517L69.751 133.562L69.7836 133.855H69.392L69.2941 133.366L68.8699 132.289L68.9351 132.126L68.3478 130.886L68.0867 129.972L67.8909 129.091L67.4993 128.504L67.3688 127.982L66.553 126.219L66.2267 125.599L66.2919 125.404L65.8024 124.457V124.066L65.4761 123.576L65.2477 122.793L64.4645 121.781L63.355 121.52L62.8655 121.586L62.2781 122.075L62.5066 122.695L62.6371 123.348L62.996 124L63.0939 124.392L63.6813 125.273L64.0729 126.546L64.2361 127.362L64.4319 127.427L64.7908 128.145L64.9214 129.026L65.3782 129.548L65.574 130.331L66.2919 131.506L66.6509 132.224L66.6182 132.583L66.9119 133.529L67.3362 133.986L67.6298 134.475L67.8256 135.161L68.6088 135.748H69.5552L70.5994 135.585L71.1542 135.161L71.4478 134.443L71.9047 133.562L72.4268 132.681L72.4595 132.322L72.8184 130.886L73.5363 129.744L74.1563 128.275L74.3195 128.079L74.7764 126.872L75.2006 126.35V125.404L75.8206 124.653L76.1796 123.935L76.3101 123.119ZM59.3412 143.776V142.601L59.2107 141.296V139.729L59.1454 139.24V137.967L59.4391 137.38L59.2107 135.781L59.0475 135.324L59.2433 133.627L59.0475 132.224L59.2759 131.343L59.0475 130.494V129.842L58.7538 128.96L59.1128 126.937V124.784L58.9823 123.544L59.0801 122.858L58.8844 120.966V116.234L59.1454 114.733L58.7212 112.971V111.078L58.8191 109.707L58.7212 108.5V107.554L58.7865 107.456L59.537 107.129L60.5486 107.26L60.8749 107.031L62.0171 107.293L63.3224 107.064L64.3992 107.195H66.7814L67.4341 107.031L68.1193 107.097H74.5479L76.049 106.901L76.9627 106.966H78.8554L79.5407 107.293L79.4102 108.696L79.606 109.707L79.4754 109.871H79.3449L79.606 111.013L79.5081 112.318L79.8018 113.689L79.4102 116.169L79.7691 117.441L79.6712 117.604L79.3775 117.735L79.867 119.628L79.7365 121.227L79.9649 122.042L79.7691 123.38L79.9649 124.164V125.175L80.0628 125.567L79.8996 127.035V130.918L80.226 131.767L80.0302 133.105V134.28L79.867 135.552L80.0954 136.303V137.967L80.2586 138.783L80.1933 139.599V142.862L80.2912 143.417L79.4428 143.841L78.6596 143.939H76.1796L75.2985 144.069H74.8416L73.6995 144.363L72.231 144.069L71.0563 144.232H69.751L68.8372 144.135L67.3688 144.265H65.5087L64.9214 144.135L63.8119 144.33H61.756L60.6791 144.232L59.7654 144.363L59.3412 143.776ZM78.7121 143.286L78.6795 143.09V138.848L78.5816 138.75V137.347L78.9079 136.76L78.7774 135.03L78.4184 134.116L78.6795 132.289L78.5163 132.158L78.4837 132.028L78.9079 130.331L78.6142 129.058L78.4511 127.688L78.7448 126.383V125.991L79.0058 124.62L78.7448 123.185V122.01L78.5163 120.672L78.6795 119.726V118.681L78.6142 118.094L78.81 115.842L78.7121 114.667L78.9732 114.211L78.6795 112.644L78.6142 111.861L78.7774 110.947L78.6469 110.066L78.7448 108.5L78.5816 107.129L79.4953 106.444L80.3111 106.542L81.5512 106.379L82.628 106.64L83.5417 106.444L84.6186 106.64L85.4997 106.575L86.0544 106.738L87.0987 106.411L89.8724 106.64H94.3431L94.7347 106.477L96.5621 106.607H99.2053L99.4664 106.868L99.499 106.966L99.4011 108.337L99.5969 109.25L99.499 110.295V112.285L99.6295 112.938L99.5643 113.721V116.332L99.7274 116.56L99.3685 118.029L99.5316 119.008L99.6295 119.301L99.4664 120.966L99.6622 121.847L99.4664 122.891L99.5969 123.968V125.143H99.6622L99.7274 125.24L99.4664 126.839L99.5643 127.688V129.124L99.3685 130.918L99.6948 131.897L99.4664 133.072V135.683L99.5643 136.074V137.739L99.6622 138.13L99.4011 138.783L99.4664 139.501V139.468L99.5969 140.806V142.927L98.879 143.58L98.2916 143.417L96.3989 143.547H95.5831L94.6368 143.645H93.8862L93.2009 144.069L91.5041 143.71H85.8913L84.2923 143.515L83.2154 143.808L81.7143 143.678H80.768L79.789 143.58L79.0385 143.678L78.7121 143.286ZM95.2568 134.998L95.3547 134.606L95.2242 133.823L94.9957 133.562L94.3757 133.464L92.9725 133.562H91.9935L91.243 133.725L90.7861 133.627L90.3945 133.333L90.5577 132.844V131.963L90.7209 131.016L90.4924 129.678L90.5903 129.385L90.4924 128.145L90.5903 128.014V126.317L90.4924 125.599L90.5903 124.196L90.7209 123.25L90.4924 121.618L89.3503 121.39L89.1545 121.488L88.045 121.325L87.8166 121.553H86.7723L86.7397 121.52H85.2386L84.847 121.618L83.8681 121.422L83.3786 121.488L82.7912 122.042L82.9217 122.63L82.987 123.609L83.4765 123.739H84.9776L85.4344 123.641L86.1523 123.805L86.7723 123.707L87.425 123.511L88.0124 123.413L88.2082 123.641V124.131L87.9797 124.751L88.045 125.534L87.9471 126.154L88.0776 127.362L87.9471 128.34V129.809L88.0776 130.396L87.8818 131.016L88.0124 131.636L87.9471 132.452L88.0124 132.844L88.2734 133.431L88.0124 133.66L87.7187 133.725L86.7071 133.594H85.9892L85.4344 133.529H84.6512L83.2154 133.888L82.8891 134.345L82.8238 135.259L83.2807 135.781L83.9333 135.846L84.5533 135.683L85.7934 135.781L86.2176 135.846L86.8702 135.683H87.5555L88.9587 135.846L90.4598 135.715L90.9819 135.813L91.5041 135.65H93.0704L93.7231 135.585L94.2125 135.748L94.9631 135.65L95.322 135.226L95.2568 134.998ZM90.9493 116.364V115.549L89.9703 114.896H88.6324L88.1103 115.222L87.7187 115.875V116.495L87.6534 116.593L87.7187 117.278L87.9145 117.768L88.3061 118.029L89.3503 118.257L89.9377 118.159L90.5251 117.963L90.7209 117.082L90.9493 116.364ZM98.2136 143.351V137.967L97.9852 137.771L97.9525 137.641L98.3441 135.879L97.9852 134.802L98.1157 133.66L98.3115 132.648L98.2136 131.277L98.5399 130.918L98.181 129.287V127.557L98.4094 127.133L98.2136 124.62L98.5399 124.327L98.2462 122.695V121.781L98.0831 121.063L98.2136 119.432V116.658L98.3441 116.332V114.309L98.181 113.362V112.155L98.3767 111.698L98.181 110.229L98.3115 109.446L98.2462 109.479V108.108L98.1483 107.456L98.9315 106.705L99.421 106.738L100.563 106.64L101.542 106.868L102.847 106.673L103.859 106.901H105.915L106.796 106.705L107.285 106.673L108.819 106.803H112.572L113.486 106.999L114.791 106.803H118.641L119.066 107.162V108.696L119.131 109.022L118.837 109.675L119.066 110.882L118.935 111.894L119.196 113.525L118.968 114.341L119.098 115.288L118.805 115.777L119.164 117.213L118.805 117.931L119.164 120.084L119.066 121.455L119.164 121.912L119 122.467L119.262 124.653V125.567L119.098 127.068V128.96L118.935 130.951L119.262 131.8L119.098 132.713V134.541L118.837 135.291L119.131 136.401L119.066 137.282L119.294 137.934L119 139.044L119.066 139.794V143.547L118.968 143.678L117.434 143.808H116.684L115.672 143.645L114.301 143.939H111.887L111.201 143.776L108.95 143.971L107.742 143.874H104.218L104.087 143.71L102.554 143.971L101.705 143.906H100.4L100.106 143.776L98.8662 143.939L98.2136 143.351ZM104.577 130.69L104.479 130.396L103.826 129.058L104.022 128.765L104.61 128.895L105.034 129.091L106.339 129.254L106.633 129.091L107.546 129.222L108.134 128.96L108.852 129.091L110.255 128.895L111.038 129.124L111.397 128.993L112.376 129.058L112.866 128.96L113.616 129.058L114.008 128.928H114.595L115.28 128.504L115.509 128.047L115.313 126.937L115.378 126.709L115.15 125.73L114.954 125.306L114.758 124.555L114.301 123.805L112.963 122.499L112.507 122.173L112.082 122.042L111.462 121.749L110.614 121.586L110.32 121.357L109.635 121.161L109.178 121.325L108.852 121.161L108.003 121.031L107.09 121.227L106.763 121.422L106.111 121.586L104.707 122.238L103.924 122.662L103.467 123.413L103.304 123.446L103.011 123.87L102.619 124.718L102.097 125.501L102.064 125.86L101.803 126.48V127.818L101.64 128.536L101.966 130.233L101.901 130.886L101.999 131.995L102.293 132.126L102.717 132.942L102.847 133.366L103.467 133.888L103.892 134.671L104.74 135.095L105.523 135.454L106.274 135.813L106.796 135.911H107.449L108.884 136.172H109.537L110.875 135.879L111.43 135.618H111.723L112.343 135.389L113.42 134.671L113.91 134.149L114.628 133.692L115.15 132.485L115.28 131.963L115.085 131.375L114.562 131.277L114.334 131.18H113.649L113.061 131.734L112.866 131.8L111.887 133.072L110.908 133.333L110.777 133.627L109.7 133.986H108.819L106.47 133.464L106.274 133.268L105.589 132.811L105.164 131.897L104.936 131.832L104.642 131.212L104.577 130.69ZM112.768 126.154L113.192 126.807L113.355 127.198L113.127 127.492L111.723 127.035L111.136 127.198L110.288 127.296L109.178 127.166L108.101 127.068L106.926 127.198L106.045 127.264L105.099 127.198L104.348 127.492L104.022 127.362L104.12 126.839L104.414 126.448L104.773 125.665L104.871 125.273L105.262 124.816L105.621 124.261L107.253 123.446L108.003 123.217L108.395 123.315H108.95L110.581 123.576L111.658 124.392L112.246 125.175L112.768 126.154ZM118.139 143.58V142.307L117.878 138.62V137.38L118.172 136.76L118.009 135.422L117.813 134.769L118.009 133.203L117.846 132.061L118.074 131.147L117.813 129.939V129.026L117.617 128.014L117.911 126.774L117.813 126.187L118.074 125.143L117.813 124.033V122.369L117.617 120.933V116.005L117.911 114.439L117.519 113.101V107.913L118.302 106.868L119.379 106.999L120.26 106.738L121.566 106.999L122.218 106.803L123.524 106.966H125.025L125.514 106.77L126.199 106.868H132.726L133.248 106.705H137.164L138.306 107.064L138.208 108.402L138.371 109.381L138.143 109.675L138.371 110.686L138.273 111.763L138.6 113.558L138.371 114.57L138.469 115.288L138.208 115.712L138.698 117.017L138.437 118.714L138.567 119.987V121.096L138.73 121.259L138.763 121.39L138.535 122.891L138.665 123.674L138.959 124.653L138.698 126.154V128.993L138.502 130.364L138.959 131.767L138.73 132.811L138.796 133.594V135.683L138.926 135.944L138.796 137.347L138.926 138.75L138.894 139.142V143.515L138.796 143.645H137.523L136.185 143.776L135.434 143.645L134.423 143.874L133.738 143.939H131.747L131.16 143.808L129.626 144.004H123.426L123.132 144.102H123.165L122.904 144.2L121.305 144.037H119.575L118.759 144.2L118.139 143.58ZM124.47 132.452L124.111 132.354L124.046 131.897V130.592L123.883 130.657V129.711L123.654 129.222L123.36 127.851L123.393 127.492L123.23 126.807V125.893L123.002 124.881L122.773 124.164V123.25L122.643 122.63L122.61 122.238L121.598 121.488L121.239 121.52L120.652 121.586L120.26 122.173L120.195 122.467V123.478L120.521 123.674L120.619 124.555V125.11L120.946 126.513L121.141 127.459V127.72L121.435 128.373V129.287L121.533 130.07L121.827 131.016L121.957 131.669L121.925 132.061L122.218 133.105L122.153 133.431L122.284 134.214L122.675 135.226L122.871 135.65L123.915 135.748L124.992 135.683L125.221 135.552L125.808 134.867L126.265 134.214V133.529L126.624 132.354L127.081 131.669L126.95 131.343L127.733 128.732L127.962 128.243L128.125 127.427L128.027 127.068L128.223 126.937L128.614 127.916L128.451 128.014L128.941 129.026L128.843 129.515L129.202 130.886L129.365 131.18L129.691 132.42L129.92 132.778L130.148 134.247L130.703 135.324L131.323 135.715L131.878 135.813L133.281 135.585L133.738 135.161L134.129 134.345L134.358 133.529L134.455 132.158V131.734L134.651 131.114V130.396L134.978 129.124V128.634L135.337 127.753L135.239 127.394L135.728 126.48L135.565 125.632L135.663 124.457L136.022 123.707L135.989 123.348L136.218 122.662L136.087 122.206L135.63 121.586L135.076 121.52L134.521 121.683L133.933 122.01L133.868 122.923L133.672 123.119L133.542 123.772L133.607 124.751L133.379 124.979V125.86L133.052 126.644L133.15 127.884L132.857 128.438L132.595 129.352L132.693 129.939V130.821L132.432 131.082L132.302 132.42L132.204 132.811L131.975 133.17L131.78 132.387V131.897L131.388 131.082V130.396L131.029 129.678L130.833 128.732L130.409 127.623L130.279 126.774L129.724 125.893L129.397 124.914L128.418 124.555L127.407 124.425L127.015 124.751L126.754 125.077L126.558 125.469L126.33 126.285L126.004 127.851L125.775 128.34L125.677 128.863L125.155 129.678V131.212L124.894 131.375L124.47 132.452ZM137.412 143.09V142.111L137.249 140.088V136.694L137.478 136.074L137.608 135.193L137.314 133.855L137.445 132.844L137.282 132.55L137.151 132.093L137.543 130.201L137.38 129.222L137.053 128.014L137.445 126.317L137.575 124.588L137.445 123.054V122.075L137.184 120.607L137.38 119.53V118.518L137.282 118.388L137.412 116.691V115.712L137.543 115.19L137.575 115.222V113.721L137.347 112.644V111.959L137.478 111.274L137.314 110.425L137.445 108.957V108.337L137.282 107.097L138.13 106.477L138.652 106.509L140.219 106.346L141.296 106.509V106.411L141.459 106.281L143.417 106.64L144.167 106.575L144.95 106.77L146.19 106.444L147.92 106.64L148.997 106.575H157.775L158.232 106.934L158.134 108.272L158.33 109.022L158.003 110.132L158.264 111.176L158.167 112.351L158.33 113.46L158.134 114.015V116.234L158.428 117.082L158.264 118.322L158.134 118.518L158.264 119.987L158.134 120.704L158.297 122.075L158.232 122.206L158.036 122.369L158.297 124.196L158.493 124.914L158.069 126.774L158.199 127.296V130.657L158.46 131.212L158.101 132.322L158.264 133.855V134.704L157.971 135.193L158.297 136.368L158.232 137.282L158.395 138.326L158.101 139.077L158.167 139.794V139.762L158.264 140.512V142.536L158.33 143.254L158.264 143.351L155.23 143.645L154.642 143.482L153.5 143.645H152.391L151.803 143.874L150.857 143.678L150.237 143.612L148.116 143.808L146.354 143.678H143.612L143.188 143.515L141.818 143.743L140.937 143.678H139.697L138.685 143.58L137.771 143.678L137.412 143.09ZM154.349 131.734V131.702L154.414 131.082L153.892 129.842L153.304 129.058L152.717 128.765L152.097 128.275L151.216 128.145L150.889 127.884L150.302 127.818L148.214 127.231L147.822 127.296L147.267 127.1L146.321 126.97L145.146 126.611L144.591 126.187L144.298 125.958L144.102 125.469L144.135 125.045L144.069 124.686L144.363 124.196L144.95 123.805L146.288 123.511L147.398 123.217L148.442 123.413L148.866 123.38L149.911 123.707L150.857 124.49L151.151 125.143L152.162 125.567L153.141 125.665L153.663 125.273L153.761 125.143L153.631 124.229L153.206 123.707L152.88 122.989L152.358 122.695L152.13 122.434L150.889 121.683L150.302 121.618L149.029 121.096L148.475 121.227L147.365 120.998L146.81 121.194L146.288 121.227L145.473 121.39L144.559 121.488L143.971 121.651L143.776 121.879L143.123 122.108L142.601 122.565L142.275 122.989L141.883 123.902L141.589 124.229L141.426 125.175L141.491 126.154L142.275 127.459L142.764 127.982L143.939 128.471L145.277 129.124L145.603 129.156L146.713 129.483H147.594L148.083 129.548L149.388 129.972L149.976 130.07L150.172 130.201L150.531 130.298L151.51 131.082L151.64 131.441L151.705 132.126L151.477 132.55L151.346 133.007L150.824 133.464L149.258 133.953L148.312 133.692H147.463L146.484 133.855L145.766 133.562L144.983 133.366L144.428 132.974L143.939 132.224L143.645 131.571L143.319 131.277L142.046 131.18L141.589 131.147L141.23 131.375L141.198 131.865L141.426 132.42L141.687 133.301L141.883 133.594L142.536 134.312L142.633 134.508L143.384 135.259L144.624 135.683H145.048L145.538 135.879L146.419 135.944L146.876 136.042H148.638L150.433 135.748H151.02L152.717 134.834L153.467 134.084L154.153 133.17L154.218 132.387L154.349 131.734Z" fill="#D1A644"/>
</svg>
