<svg width="242" height="170" viewBox="0 0 242 170" fill="none" xmlns="http://www.w3.org/2000/svg">
<g clip-path="url(#clip0_188_45)">
<path d="M77.9017 112.328C76.9897 112.173 76.3871 112.173 76.2324 112.173C75.7764 112.173 74.2619 111.872 73.5046 111.563C73.2033 110.952 72.5926 110.805 72.1366 110.195L70.3126 109.739C69.71 109.584 68.9446 108.525 67.8861 108.069C63.7903 106.253 60.1504 100.944 59.8491 97.6058C59.6944 97.1498 58.7906 96.2378 58.6359 95.4805C58.4812 94.5685 58.9372 93.2087 58.4812 91.8407C58.4812 91.686 57.8705 91.23 57.8705 90.7822C57.7157 90.4809 57.5692 89.7236 57.5692 89.1129C57.5692 83.3478 57.8705 81.532 57.5692 78.1934C57.4145 76.5242 57.4145 69.8552 57.5692 65.1487C57.7239 63.0234 57.2679 58.325 57.2679 57.8691V52.4053C57.2679 51.7945 56.9666 49.5227 57.1132 48.1547C57.2679 47.8534 57.5692 46.9415 57.5692 46.4855C57.5692 46.0295 56.8119 41.6324 56.5106 39.0511C56.5106 38.2938 57.1213 36.6246 56.8119 35.4113C56.6572 34.654 56.2012 33.4407 56.3559 32.374C56.5106 30.1022 56.2012 25.8517 56.2012 25.2491V20.2413L55.8999 4.31402C55.8999 2.64476 56.5106 1.58619 58.3264 1.58619C59.385 1.58619 61.8116 1.58619 62.8783 1.74091C63.6355 1.89562 66.0621 1.74091 66.6728 1.74091L73.6512 1.43962C75.7764 1.43962 76.5337 3.41018 76.5337 4.47688C76.5337 5.08759 76.5337 5.23416 76.379 5.69015C76.379 7.05814 76.5337 10.3885 76.2243 11.9112C75.923 13.5805 75.923 16.6096 75.923 17.0656C75.923 17.6763 75.923 19.4922 76.0777 20.8601C76.0777 21.6174 75.923 22.8307 75.7764 23.8974C75.6298 24.9641 75.3204 26.1692 75.6217 27.2359C76.0777 29.3612 76.2324 31.633 76.0777 33.457C75.7764 35.8836 76.2324 40.2807 76.2324 40.7367V63.0316C76.2324 63.4876 76.3871 65.4581 76.3871 66.0688C76.3871 66.6795 76.3871 67.7381 76.0858 68.7967L76.3871 70.0099C76.3871 71.0685 76.8431 72.4365 76.5418 73.6498C76.5418 73.951 76.5418 74.1057 76.3871 90.033C76.3871 95.1874 78.2111 98.3712 83.2108 98.3712C85.1813 98.3712 88.2186 97.0032 88.9759 94.4301C89.4319 92.7608 89.4319 90.7903 89.5866 89.121L88.9759 29.2146C88.9759 28.7586 88.3652 28.0014 88.3652 27.2441C88.3652 25.5748 88.5199 23.9055 88.2104 22.6923C88.0557 22.2363 88.2104 15.2579 88.2104 14.6553V4.79445L88.0557 3.58117V2.97047C88.0557 1.3012 90.181 1.45591 90.9383 1.45591L97.1593 1.75719C97.7701 1.75719 103.682 1.14648 104.138 1.14648C104.594 1.14648 106.564 2.05848 107.476 2.51447C107.932 2.97047 107.476 4.7863 107.322 5.39701L107.778 69.8552C107.778 74.7083 108.234 78.8041 108.388 83.3559C108.388 84.8705 107.778 87.753 107.778 88.3637V88.8197L107.932 90.033C107.932 90.945 107.778 91.7023 107.631 92.6143C107.476 94.2835 107.33 96.4088 106.874 98.3794C106.572 99.8939 105.204 101.563 104.602 103.078C104.447 103.232 103.845 103.534 103.543 103.99C103.389 104.291 103.389 105.048 103.087 105.504C101.573 106.872 99.6022 108.387 97.7782 109.901C97.1675 110.357 95.9624 110.659 95.1969 111.115C94.285 111.571 94.4397 112.173 92.7704 112.173C92.1597 112.173 85.9467 113.085 85.4907 113.085C85.336 113.085 84.7335 113.085 83.8215 112.931L77.9098 112.32L77.9017 112.328ZM60.6146 78.3563V78.8123L61.3718 78.3563L61.0706 78.055L60.6146 78.3563ZM60.7693 54.0908L61.2253 54.8481L61.836 54.5468L61.38 53.7895L60.7693 54.0908ZM63.1958 48.7817L62.5851 47.8697C62.1291 47.715 61.8278 48.0244 61.5266 48.171C61.5266 48.627 61.5266 49.3843 61.9826 49.8403C62.5933 49.6856 63.0411 49.083 63.1958 48.7817ZM62.5851 63.4957L61.8278 63.0397C62.2838 63.6504 62.2838 64.0983 62.2838 64.253H63.0411L62.5851 63.4957ZM63.9531 81.6948L64.7104 81.2388V80.4815L64.8651 80.0255C64.2544 80.3268 64.1078 80.3268 63.8065 80.4815C63.5053 80.4815 63.1958 80.6363 62.5933 80.7828C62.748 81.0841 62.748 81.3935 62.748 81.5401C62.9027 81.6948 63.0493 81.6948 63.0493 81.6948H63.9613H63.9531ZM65.4677 46.8112C65.6224 46.6565 65.6224 46.5099 65.4677 46.2005L64.5557 44.8325C64.3548 44.9356 64.2028 44.9872 64.0997 44.9872H63.7984L63.3424 45.8992C63.1877 46.2005 63.0411 46.5099 63.0411 46.8112C63.6518 47.7232 64.4091 48.9364 65.313 49.8484C65.4161 49.5444 65.4677 49.3409 65.4677 49.2377L65.6224 48.7817C65.7771 48.627 65.9237 48.3257 65.9237 48.0244C65.7689 47.7232 65.4677 47.2672 65.313 47.1124L65.4677 46.8112ZM64.0997 62.2824H64.2544C64.4091 62.4372 64.5557 62.4372 64.8651 62.2824C65.0198 61.9812 65.0198 61.6717 65.0198 61.2239L66.0784 60.4666C66.0784 60.3635 66.0268 60.263 65.9237 60.1653V60.0106C65.9237 59.8559 65.9237 59.7093 65.7689 59.5546L64.401 60.0106C64.401 60.3119 64.401 60.4666 64.5557 60.6213L64.2544 60.776C64.0997 60.776 63.9531 60.776 63.6437 60.9307C63.489 61.0855 63.489 61.232 63.489 61.3867L63.7903 61.8427C63.7903 61.8427 63.945 61.8427 63.7903 62.144H64.0915V62.2987L64.0997 62.2824ZM64.2544 71.5326L64.5557 72.1433L65.313 71.6873L64.857 71.0766L64.2462 71.5326H64.2544ZM66.3797 75.1724L65.3211 74.2605C65.0198 74.7165 64.7104 75.319 64.5638 76.0763C65.0198 76.231 65.9318 75.4737 66.3797 75.1643V75.1724ZM65.9237 71.9886L66.6809 73.2019L67.5929 72.2899C67.4382 71.9886 67.2916 71.9886 67.1369 71.8339L66.8357 71.5326L65.9237 71.9886ZM66.6809 76.8417L67.1369 76.5404L67.2916 76.8417L66.8357 77.143L66.6809 76.8417ZM67.2916 53.0322L67.1369 54.2455C67.2401 54.3487 67.3405 54.4002 67.4382 54.4002H67.5929C67.7476 54.4002 67.8942 54.4002 68.0489 54.2455C68.5049 53.9442 68.6596 53.0322 68.5049 52.731L67.2916 53.0322ZM68.6596 83.0628C69.2703 82.6068 70.0276 81.5482 69.7182 80.4815C68.5049 80.9375 68.0489 81.8495 68.0489 82.4521L68.6596 83.0628ZM70.3289 76.9964C70.1742 76.9964 70.1742 77.1511 70.1742 77.1511H69.5635C69.4088 77.6071 69.4088 77.7618 69.7182 78.2097C70.0195 78.6657 70.7768 79.2683 71.6887 78.6657C71.99 78.511 72.1447 78.3644 72.2995 78.0631V77.7618L71.3875 76.5486C71.2327 76.7033 70.9315 76.7033 70.4755 76.5486C70.4755 76.7033 70.3208 76.8499 70.3208 76.8499V77.0046L70.3289 76.9964ZM69.5716 76.0844C69.7263 76.2392 70.0276 76.2392 70.3289 76.2392C70.3289 76.0844 70.1742 75.6284 69.8729 75.6284C69.7182 75.9297 69.5716 76.0844 69.5716 76.0844ZM71.5422 72.7459C71.2409 72.4446 70.4836 72.5912 70.3289 72.7459C70.6302 73.2019 71.0862 73.5032 71.2409 73.5032C71.2409 73.3485 71.5422 73.0472 71.5422 72.7459ZM70.9315 80.0255V79.1136L70.3208 79.2683V80.1803L70.9315 80.0255ZM75.182 86.2466V85.6359C74.726 85.6359 74.27 85.3346 73.9687 85.3346C73.5127 85.3346 73.0567 85.7906 72.6007 85.9453C72.7555 86.4013 73.6593 86.4013 74.1153 86.4013L74.8726 86.2466H75.1739H75.182ZM73.358 79.1217C73.6593 79.5777 73.814 79.879 73.9687 80.0337C74.1234 80.1884 74.27 80.1884 74.27 80.335C74.8807 80.335 75.4833 80.0337 75.638 79.5777C75.182 78.967 74.726 78.5191 74.27 78.5191L73.358 79.1298V79.1217ZM74.1153 106.726L75.9393 106.571C75.7846 105.814 75.0273 105.203 74.5713 105.056C73.814 105.667 74.1153 106.571 74.1153 106.726ZM76.8431 101.115C77.4538 102.483 78.5124 102.329 79.115 102.329C80.1735 102.329 80.4829 102.174 80.7842 100.659C80.6295 100.659 80.4829 100.358 77.2991 100.358C77.1444 100.513 76.8431 100.969 76.8431 101.115ZM85.6373 101.27L85.9386 100.659L85.4826 100.505L85.3279 101.115L85.6292 101.27H85.6373ZM85.6373 107.638L85.9386 103.998H85.4826L85.3279 107.638H85.6292H85.6373ZM89.8797 98.2328L89.725 98.9901H91.093C91.2477 98.8354 91.2477 98.3794 91.093 98.2328H89.8797ZM92.7622 52.8857V52.4297C92.7622 52.1284 92.1515 51.819 92.005 51.819C91.549 51.9737 91.4024 52.1203 91.4024 52.5763C91.4024 53.187 91.5571 53.187 92.005 53.4882C92.461 53.187 92.6157 53.0322 92.7622 52.8775V52.8857ZM96.2474 60.6213C94.8794 60.1653 93.5195 60.1653 92.4528 59.7093V60.7679C92.6075 60.7679 92.9088 60.3119 93.0635 60.0106C93.5195 60.7679 93.9755 61.9812 95.0341 61.9812C95.4901 61.9812 96.0926 61.5252 96.2474 61.2239V60.6213ZM93.3648 43.1795C93.2101 43.6355 93.2101 44.3928 93.3648 44.5475C93.6661 44.2462 93.9755 44.2462 94.1221 44.0915C94.1221 43.6355 93.5114 43.1795 93.3648 43.1795ZM93.3648 40.7529L93.8208 41.2089C94.4315 41.0542 95.1888 40.5982 95.6448 40.1504L95.4901 38.9371C94.8794 39.2384 94.1221 39.6944 93.3648 40.1504V40.7611V40.7529ZM93.5195 36.9584C94.1302 36.9584 94.8875 37.2597 95.4901 37.4144C95.4901 37.2597 95.7914 36.9584 95.7914 36.6571C95.3354 36.2011 95.0341 36.0464 94.5781 36.0464C93.9674 36.0464 93.6661 36.2011 93.5195 36.5024V36.9584ZM93.5195 50.4591C93.9755 50.6138 94.4315 50.9151 94.8875 50.9151C95.3435 50.9151 97.0128 50.0031 97.9248 49.7019C96.5568 48.9446 95.4982 47.8779 94.7409 47.2753C94.4397 47.43 94.1302 47.5766 93.9837 47.7313C93.8289 48.4886 93.5277 49.0993 93.5277 49.5471V50.4591H93.5195ZM93.5195 56.8268C94.4315 56.6721 95.4901 56.3708 96.1008 56.0695C95.9461 56.0695 95.6448 55.7682 95.1888 55.7682C94.5781 55.7682 93.9755 56.6802 93.5195 56.8268ZM97.6153 52.1284C97.6153 51.5177 97.3141 51.5177 97.1593 51.3711C96.7034 51.3711 95.1888 51.2164 94.8875 52.4297C95.0422 52.731 95.4982 53.187 95.9461 53.187C96.3939 53.187 97.6153 52.8857 97.6153 52.1284ZM97.9166 46.8193C98.0713 46.6646 98.3726 46.062 98.3726 45.9073C97.1593 45.15 97.9166 43.7821 97.1593 42.8701C97.1593 43.0248 96.5568 43.1713 96.2474 43.3261C96.5486 43.7821 96.0926 44.2381 96.0926 44.694C96.0926 44.8488 96.8499 46.518 97.9166 46.8193ZM97.4606 37.1131L97.9166 37.2678C98.0713 37.2678 98.3726 36.9665 98.3726 36.9665C98.2179 36.6653 97.4606 36.6653 97.3141 36.9665C97.3141 36.9665 97.4688 36.9666 97.4688 37.1213L97.4606 37.1131ZM97.6153 60.32C97.9166 60.0187 98.0713 59.7093 98.0713 59.5627C97.9166 59.2615 97.4606 59.1068 97.3141 59.1068L97.6153 60.32ZM98.5273 55.1657L99.5859 54.8644C99.2846 54.5631 98.6739 54.1071 98.5273 54.1071V55.1657ZM99.5859 50.4673C99.7406 50.4673 99.8872 50.0113 100.197 49.71C99.8953 49.5553 99.4393 49.5553 99.2846 49.5553C99.2846 49.5553 99.2846 50.3126 99.5859 50.4673ZM99.2846 89.9027L99.7406 89.6014L99.8953 89.9027L99.2846 90.204V89.9027ZM100.197 39.5478V38.6358H99.7406V39.5478H100.197ZM100.351 45.3129C100.962 45.4676 100.506 44.4009 100.506 44.2543C100.205 44.7103 100.351 45.3129 100.351 45.3129ZM101.41 41.0624C101.41 40.4517 101.41 39.8491 101.255 39.3931C101.1 40.0038 100.343 40.6064 100.343 41.0624H101.402H101.41ZM101.41 75.49C101.866 75.49 102.021 75.034 102.322 74.7327C101.866 74.578 101.41 74.7327 100.954 74.7327C101.255 75.034 101.41 75.3435 101.41 75.49ZM101.109 53.6511C100.954 54.1071 101.263 54.7097 101.565 55.0191H102.322C102.322 54.2618 102.021 53.9605 102.021 53.6511H101.109ZM102.167 92.6306V91.8733H101.711V92.6306H102.167ZM102.778 62.2987C102.933 61.9974 103.234 61.5414 103.535 61.2402C103.234 60.9389 102.623 60.4829 102.477 60.6376C102.477 60.9389 102.175 60.7923 102.175 61.3949C102.175 61.8509 102.477 62.0056 102.786 62.3069L102.778 62.2987ZM104.447 55.4751C104.292 55.3204 103.991 55.1738 103.991 55.1738C103.234 55.4751 102.477 57.1443 102.477 57.2991C102.477 57.9098 102.933 57.7551 103.234 57.7551C103.845 56.8431 103.079 56.2405 104.447 55.4832V55.4751ZM103.836 58.8136C104.138 58.9683 104.447 58.9683 104.594 59.2696C104.895 58.9683 104.895 58.667 104.895 58.667C104.74 58.3658 104.138 58.0563 103.836 58.0563V58.8136ZM103.991 68.9758L103.836 69.7331H105.204C105.359 69.5784 105.359 69.1224 105.204 68.9758H103.991Z" fill="white"/>
<path d="M165.225 3.55025C165.371 4.74724 167.464 5.04038 168.36 6.0908C169.703 8.02878 169.557 9.67362 170.298 9.67362C170.746 9.67362 170.444 9.67362 170.746 9.52705C171.495 11.0172 174.027 18.7854 173.881 19.6811V30.4296C172.236 30.4296 170.151 31.024 169.703 31.024H163.735C163.287 31.024 163.881 31.4718 163.287 31.4718H158.507C157.465 29.2326 158.507 28.6381 158.507 27.7424V27.4412L158.059 26.9933V26.692C157.758 25.6497 157.913 23.8583 157.611 22.6613C157.31 21.0165 157.31 19.2251 156.414 17.8815C155.665 16.6845 153.133 14.6 151.341 14.6C150.894 14.6 149.998 14.9013 149.403 15.4957C145.821 18.4841 145.821 21.1712 145.821 24.1515C145.821 30.4214 151.944 40.722 154.33 42.66C160.005 50.8679 168.661 62.5121 173.441 72.5196C173.889 74.9054 175.534 79.9865 175.232 81.1753C175.086 82.9668 175.827 83.7159 175.827 84.1637C175.827 84.7582 175.525 84.3103 175.379 84.465C175.827 89.9858 173.889 98.0472 169.858 103.723C169.557 104.171 168.661 104.317 168.213 104.618C165.827 109.398 157.164 111.931 152.237 111.931C151.789 111.931 149.102 111.181 147.457 111.181C141.041 111.181 133.273 105.359 131.783 98.9429C131.636 98.7963 131.188 98.3484 130.887 98.1937C130.887 97.5993 130.887 96.7036 130.74 96.2558C130.594 95.8079 130.146 95.6613 129.845 95.2135C129.845 92.2251 129.25 91.1828 129.095 89.0901C128.949 87.1521 129.543 86.8509 129.397 85.5073C129.25 83.7159 128.802 80.4343 128.802 79.9865C128.802 79.5386 129.551 78.3417 129.845 77.8938C130.439 77.7472 131.042 77.8938 131.636 77.8938H135.52C136.114 77.8938 137.01 77.2994 137.906 77.2994C139.697 77.1528 141.635 77.4459 144.477 77.1528L144.925 77.4541C144.925 78.2032 144.477 79.8399 144.477 80.1412C144.477 80.5891 145.226 82.8283 145.373 84.7663C145.519 85.8086 145.519 88.0478 145.821 89.6927C145.821 90.2871 146.122 91.1828 146.415 91.6307C146.716 92.2251 147.311 93.2755 147.759 94.3178C149.55 95.6613 149.851 95.5148 151.341 95.5148C157.758 95.5148 158.955 89.0983 158.955 85.5154C158.955 85.0676 158.654 84.921 158.507 84.7663C158.206 83.1215 157.465 79.3921 156.569 77.4541C156.569 77.3075 156.268 76.4118 155.82 75.6627C155.673 72.9756 152.832 69.694 150.747 66.7056C150.747 66.2578 150.747 65.5086 150.299 65.0608C148.361 63.4159 145.967 59.0921 144.477 58.0417C144.029 56.8447 142.384 53.8645 140.748 52.5209C141.497 51.3239 139.258 50.2816 138.362 48.9381C137.466 47.7411 136.57 45.5018 134.926 44.0117C134.478 42.5216 132.686 39.6797 132.092 38.1896C131.791 37.4405 131.498 35.2012 131.196 34.3055C130.895 33.8577 130.154 32.962 129.999 32.0663C129.999 31.4718 130.301 30.5761 130.146 30.1283C129.999 29.827 129.397 29.086 129.25 28.4834C129.397 28.3369 129.397 28.0356 129.25 23.4105C131.042 21.0246 128.802 18.0362 130.895 15.3491L132.686 10.8706C132.988 10.2762 134.478 9.67362 134.176 8.63134C135.373 7.88221 137.165 6.69336 137.759 5.3498C138.508 5.04852 139.249 4.90195 140.145 4.75538C140.292 4.30753 140.292 3.71311 140.74 3.26525C144.021 2.8174 144.021 1.32727 146.26 1.32727C146.708 1.32727 147.604 1.47384 148.198 1.47384C148.646 1.47384 149.241 0.276855 150.739 0.276855C151.187 0.276855 153.426 0.724708 154.77 0.724708C156.113 0.724708 157.457 1.17256 158.206 1.17256H158.507L159.256 0.724708H159.558C160.005 0.724708 160.307 1.47384 160.6 1.62041C161.349 2.06827 162.391 2.36955 163.433 2.8174C163.735 2.67083 163.735 2.22298 164.028 1.9217C164.329 2.06827 164.777 2.36955 165.225 2.51612V2.96397C165.225 3.11054 165.078 3.26525 164.924 3.41182C165.07 3.41182 165.07 3.55839 165.225 3.55839V3.55025ZM136.114 92.9742V93.5686H137.01V92.9742H136.114ZM139.103 99.8386L139.551 98.9429L138.956 98.7963L138.508 99.5454L139.103 99.8467V99.8386ZM142.686 105.514V106.109H143.728V105.514H142.686ZM152.538 53.2619V54.011H153.882V53.2619H152.538ZM155.975 61.6245V63.1147H156.276L156.577 63.2612C156.724 63.2612 156.879 63.2612 157.025 62.9599C157.025 62.6587 156.879 62.5121 156.724 62.3655L155.975 61.6164V61.6245ZM156.87 102.534V101.492H156.276V102.534H156.87ZM158.808 99.8467C158.808 99.5454 158.808 98.951 158.361 98.5032C158.214 98.6497 158.214 98.8044 158.214 98.8044L158.067 98.951C157.921 99.0976 157.921 99.2523 157.62 99.3989C158.067 99.8467 158.515 99.8467 158.817 99.8467H158.808ZM158.059 52.6675C157.758 53.7098 158.059 54.4589 158.206 55.0533H159.248C159.248 54.6055 159.248 54.4589 159.102 54.1576C159.102 53.7098 159.248 53.1153 158.955 52.6675H158.059ZM160.152 105.669H158.955C158.808 105.669 158.654 105.815 158.654 106.117C158.654 106.263 158.8 106.565 158.955 106.711L160.152 105.669ZM159.403 56.5516C159.704 56.1037 159.997 55.9572 160.445 55.6559C160.445 55.5093 160.592 55.5093 160.893 55.208C160.299 55.208 159.997 55.0615 159.696 55.0615C159.395 55.0615 159.102 55.0615 158.8 55.208C158.8 55.5093 159.102 56.1037 159.395 56.5516H159.403ZM159.102 102.233C159.403 102.233 159.696 102.379 159.696 102.534C160.29 102.534 160.738 101.939 160.738 101.492C160.437 101.345 159.843 101.044 159.395 101.044L159.093 102.241L159.102 102.233ZM162.538 18.1828C162.09 18.1828 161.789 18.6307 161.789 18.932C161.935 19.0785 162.236 19.0785 162.538 19.0785C162.684 18.7772 162.538 18.3294 162.538 18.1828ZM162.538 67.8945V68.6436L163.881 68.9449V68.1958L162.538 67.8945ZM163.287 96.557L163.588 96.1092C163.442 95.9626 163.442 95.8079 163.442 95.6613C163.295 95.5148 163.295 95.2135 162.994 95.0669C162.692 95.5148 162.692 96.2639 162.692 96.7118C162.994 96.7118 163.14 96.5652 163.287 96.5652V96.557ZM166.568 89.3914H165.078C164.777 89.6927 164.183 89.9858 163.881 90.1405C163.433 90.4418 162.986 90.8897 162.986 91.1828V91.7772C163.287 92.0785 163.735 92.0785 164.183 92.0785H164.777C165.225 91.7772 166.568 90.735 166.568 90.2871V89.3914ZM163.433 87.1521C163.433 87.2498 163.482 87.2987 163.58 87.2987V87.4453C163.58 87.5918 163.727 87.7466 163.881 87.8931C164.476 88.0397 165.078 88.1944 165.819 88.341H165.966L166.267 88.4875C166.568 88.6341 166.715 88.7888 167.016 88.7888H167.464L167.765 88.6423H168.067V88.1944C168.213 88.0478 168.213 87.8931 168.213 87.6C168.213 87.1521 167.619 86.403 167.016 85.8086C166.87 85.9551 166.715 86.1099 166.715 86.2564L166.414 86.5577C166.267 86.7043 166.112 86.859 165.966 86.859C165.819 86.859 165.518 86.7124 165.07 86.5577C164.622 86.4111 164.174 86.2564 163.873 86.2564C163.279 86.2564 163.425 86.5577 163.425 86.5577V87.1521H163.433ZM164.028 73.2687L164.476 72.373L163.881 72.2264L163.433 72.9756L164.028 73.2768V73.2687ZM164.476 65.5086L164.777 65.3621H165.078C165.078 64.9142 164.932 64.7676 164.932 64.6129L164.484 64.1651C163.889 64.4664 163.588 65.0608 163.588 65.5086H164.484H164.476ZM165.371 79.6934H166.414C166.414 79.3921 166.56 79.2455 166.56 79.0989V78.9524C166.707 78.9524 166.707 78.8058 166.707 78.6511C166.406 78.5045 166.259 78.3498 166.259 78.2032C166.112 78.0567 165.811 77.9019 165.665 77.9019H165.07L164.769 79.2455C164.915 79.3921 165.07 79.3921 165.07 79.3921L165.371 79.6934ZM165.673 91.9319L165.078 92.5264V93.2755C165.526 93.4221 166.275 93.4221 166.723 93.2755V92.3798C166.723 91.7854 166.422 91.9319 166.275 91.9319H165.681H165.673ZM165.078 98.951C165.827 99.3989 166.568 99.7002 166.87 99.7002C166.87 99.3989 166.87 99.2523 166.723 99.1057V98.5113L165.078 98.9592V98.951ZM165.673 10.7159C165.819 10.7159 166.121 10.1215 166.267 9.96676C166.121 9.96676 165.819 9.66548 165.819 9.66548C165.673 9.96676 165.371 10.5612 165.673 10.7078V10.7159ZM167.912 80.8822C167.464 80.8822 166.87 80.8822 166.568 81.0288C166.422 81.7779 167.163 82.3723 167.765 82.5189L168.962 81.4766L168.816 80.4343C168.515 80.4343 168.368 80.4343 168.221 80.5809L167.92 80.8822H167.912ZM169.109 72.0717L168.808 73.114C168.954 73.5618 169.402 74.0097 170.005 74.0097C170.607 74.0097 170.9 73.4153 170.9 72.9674C170.9 72.6661 170.9 72.373 170.754 72.373L170.607 72.2264C170.607 72.2264 170.461 72.2264 170.306 72.0799H169.109V72.0717ZM170.599 93.5686C171.047 93.4221 171.348 93.1208 171.348 92.5264C171.348 92.2251 170.599 91.3294 170.151 91.0362C169.557 91.1828 169.402 91.9319 169.402 92.3798C169.402 92.8276 169.703 93.4221 169.997 94.0246L170.591 93.5768L170.599 93.5686ZM170.599 89.2367V88.0397H169.85V89.2367H170.599ZM171.495 87.7466V87.2987C171.641 86.9974 171.796 86.8509 171.796 86.5496H170.754C170.754 86.9974 170.607 87.2987 170.306 87.7466H171.503H171.495ZM172.838 79.0908C172.391 78.7895 172.244 78.7895 171.943 78.6429L171.641 78.4964H171.495C171.194 79.0908 171.348 79.5386 171.348 80.1412C171.65 80.1412 172.692 79.2455 172.838 79.0989V79.0908ZM177.016 76.7049V73.8713C177.016 75.0683 177.61 76.1105 178.359 76.7049H177.016Z" fill="#D1A644"/>
<path d="M205.076 32.5792L205.295 34.3218L206.281 36.39L207.046 36.6099L208.463 39.6634L210.751 41.1943L211.402 41.8457L219.252 43.5882H222.2L225.799 42.3913L226.239 41.406L229.512 40.5347L232.785 36.2842L233.437 36.0643L235.399 34.2078H237.687L238.453 34.5335L240.195 34.8592L240.847 36.8216L240.407 38.5642L238.665 42.603L236.262 44.1338L234.626 45.8764L231.027 48.2785L228.95 49.0439H227.965L226.108 49.9152L221.638 50.9005H219.456L214.66 50.0292H212.477L210.735 49.7035L208.227 48.5065L205.613 47.3095L202.779 45.8927L201.362 43.2788L199.294 41.5363L198.854 40.1194L197.438 37.3916L196.452 36.9519L196.127 33.2469L196.347 31.0647L195.255 25.3891L195.801 22.987V18.5166L196.672 16.4484L196.778 15.2514L198.521 12.6376L199.832 9.80387L200.817 8.38703L201.362 8.28118L202.893 5.7732L205.507 4.35636L210.197 2.17409L212.38 1.62853L213.471 0.977106L216.524 0.325684L219.358 0.765393L220.449 1.31096L221.972 0.765393L224.26 1.41682L225.245 2.18224L228.079 2.7278L230.155 3.71308L231.572 4.15279L233.103 5.24392L237.573 9.60845L239.096 12.1164L239.747 14.6244L240.399 16.0412L241.164 19.3146L240.944 20.0801L241.596 23.785L240.831 25.3159L238.542 26.7327H236.58L235.269 27.1724L232.761 26.8467L231.124 27.1724L227.851 26.9526L226.654 27.3923L224.04 26.6268L219.35 27.2783L216.948 26.8386L214.985 27.7098L211.932 27.2701L210.947 27.8157L206.582 27.2701L205.165 26.6187L203.203 26.179L202.551 27.1643L204.734 31.6347L205.059 32.6199L205.076 32.5792Z" fill="#D1A644"/>
<path d="M205.076 93.2018L205.295 94.9443L206.281 97.0126L207.046 97.2325L208.463 100.286L210.751 101.817L211.402 102.468L219.252 104.211H222.2L225.799 103.014L226.239 102.029L229.512 101.157L232.785 96.9067L233.437 96.6869L235.399 94.8303H237.687L238.453 95.156L240.195 95.4818L240.847 97.4442L240.407 99.1867L238.665 103.226L236.262 104.756L234.626 106.499L231.027 108.901L228.95 109.666H227.965L226.108 110.538L221.638 111.523H219.456L214.66 110.652H212.477L210.735 110.326L208.227 109.129L205.613 107.932L202.779 106.515L201.362 103.901L199.294 102.159L198.854 100.742L197.438 98.0142L196.452 97.5744L196.127 93.8695L196.347 91.6872L195.255 86.0117L195.801 83.6096V79.1392L196.672 77.0709L196.778 75.874L198.521 73.2601L199.832 70.4264L200.817 69.0096L201.362 68.9037L202.893 66.3958L205.507 64.9789L210.197 62.7967L212.38 62.2511L213.471 61.5997L216.524 60.9482L219.358 61.388L220.449 61.9335L221.972 61.388L224.26 62.0394L225.245 62.8048L228.079 63.3504L230.155 64.3356L231.572 64.7754L233.103 65.8665L237.573 70.231L239.096 72.739L239.747 75.247L240.399 76.6638L241.164 79.9372L240.944 80.7026L241.596 84.4076L240.831 85.9384L238.542 87.3553H236.58L235.269 87.795L232.761 87.4693L231.124 87.795L227.851 87.5751L226.654 88.0148L224.04 87.2494L219.35 87.9008L216.948 87.4611L214.985 88.3324L211.932 87.8927L210.947 88.4383L206.582 87.8927L205.165 87.2413L203.203 86.8016L202.551 87.7868L204.734 92.2572L205.059 93.2425L205.076 93.2018Z" fill="#D1A644"/>
<path d="M0.301283 146.961L0.14657 145.414V143.712L0.195427 142.889L0.374568 142.637V141.757L0 140.805L0.203569 139.681L0.325711 139.404L0.122142 138.655L0.350139 137.401L0.227998 136.823V136.269L0.105856 136.171L0.0569994 136.049L0.407139 134.795L0.284997 133.973L0.407139 133.224L0.309425 131.994V130.944L0.187284 129.967L0.260569 129.617V128.591L0.211712 128.061L0.358282 126.636V124.706L0.23614 123.705L0.333854 123.127L0.154713 122.524L0.276854 121.099V119.552L0.773564 119.406L2.00312 119.153L3.30597 119.454L3.70496 119.357L4.40524 119.503L5.30909 119.43L6.0338 119.479L6.56308 119.3L7.66235 119.422L7.98806 119.495H11.9943L13.0936 119.373L14.2906 119.446H15.9924L15.9191 119.625L16.196 119.902L16.1227 120.602L16.3018 121.482L16.1797 122.28L16.2774 122.777L16.1553 123.273L16.3344 124.601L16.2367 125.048V125.627L16.0901 126.701L16.3426 127.654L16.1878 128.151L16.2367 128.729L16.3344 129.03L16.2123 130.455L16.3914 131.009L16.2123 132.059L16.3344 132.809L16.4077 133.859L16.2041 135.056V138.085L16.3833 138.663L16.2856 139.29V140.968L16.139 141.668L16.2856 142.246V143.223L16.4891 143.272L16.5624 143.394L16.2856 144.648V146.871L16.2367 147.197L15.683 147.694L15.284 147.767L14.5837 147.816L13.5577 147.669L12.4829 147.873L12.2793 147.848L11.0253 148.027L10.3739 147.881L10.2273 147.783L8.87563 147.93H7.99621L7.22264 147.856H6.54679L6.04194 147.905L4.49481 147.759L3.61539 147.938L3.03726 147.889H2.13341L1.45756 147.816L0.757278 147.913L0.260569 147.466L0.309425 146.969L0.301283 146.961ZM13.5577 137.759V137.287L13.3297 136.815L13.3542 136.489L12.8249 135.536L12.1246 134.885L11.8477 134.836L11.3429 134.486L10.5205 134.282L10.1215 134.054L8.89191 133.558L7.89035 133.232L7.31221 133.134L6.0338 132.458L5.83023 132.23L5.48009 131.701L5.30095 131.253L5.3498 131.156L5.44752 130.431L5.79766 129.902L6.1478 129.478L6.44908 129.38L6.7015 129.201L7.77635 128.949L7.84964 129.047L8.77791 129.25L9.22577 129.201L10.0726 129.454L10.6752 130.13L10.952 130.83L11.1312 131.204L11.579 131.457L11.9292 131.53H12.3282L12.8004 131.408L12.8982 131.261L12.9959 130.887L12.7923 130.089L12.4666 129.291L12.3444 129.014L11.8966 128.436L11.693 128.338L11.2452 127.915L10.5205 127.638L9.21762 127.214L8.9652 127.263L8.08578 127.117L7.68678 127.296L6.78293 127.442L6.31065 127.589L6.00937 127.565L5.30909 127.768L4.95895 128.094L4.6821 128.216L4.07953 128.99L3.70496 129.193L3.42811 129.641L3.3304 130.113L3.37925 130.643L3.20011 131.139L3.37925 131.864V132.312L3.60725 132.809L3.93296 133.159L4.03067 133.362L4.40524 133.737L5.00781 134.136L5.2358 134.413L5.76509 134.559L7.0435 135.137L7.86592 135.463L8.26492 135.439L8.9652 135.715L9.33976 135.943L10.3902 136.318L11.1637 136.872L11.465 137.548V138.272L11.3673 138.346L11.1393 138.818L11.066 139.144L10.7403 139.469L10.1133 139.771L9.38862 139.974L8.81048 140.072H7.53207L7.20636 140.023L6.00937 139.396L5.53709 139.144L4.83681 137.89L4.53553 137.588H3.73753L3.41182 137.637L3.11054 137.89L2.90697 138.313L3.13497 138.81L3.31411 139.388L3.86782 140.267L4.07139 140.446L4.37267 140.894L4.67395 140.943L5.22766 141.44L5.50452 141.367L5.92794 141.692L6.65265 141.643L7.18193 141.847L8.37892 141.969L8.77791 141.79L9.22577 141.863L9.77947 141.79L10.6263 141.562L10.9765 141.334L11.3266 141.31L12.149 140.813L12.6457 140.235L12.8493 140.137L13.0529 139.811L13.4274 138.582L13.5007 138.158L13.5252 137.759H13.5577Z" fill="#D1A644"/>
<path d="M15.4305 146.806V145.308L15.2839 144.054V143.15L15.5119 142.401L15.4142 141.7L15.1862 141.253L15.3328 140.3V140.324L15.406 139.648L15.2595 139.225L15.463 138.272L15.2839 137.645V135.569L15.4305 135.268L15.3328 134.421V133.395L15.4305 132.947L15.2269 131.97L15.2758 131.367L15.0722 130.268L15.1455 129.592V127.214L15.2676 126.311L15.0641 125.114V121.213L14.9175 120.114L15.6422 119.666L16.546 119.788L16.8229 119.666L17.5965 119.845L18.6713 119.642L19.4449 119.821L20.1696 119.723H20.9676L21.3421 119.544L23.0195 119.748L24.6237 119.65H26.8466L27.1479 119.601H30.3725L30.975 119.805V121.034L31.0727 121.335L30.7959 121.938L31.0483 122.988V124.014L31.0972 124.34L30.8692 124.869L31.1216 126.123V127.125L31.1705 127.198L30.8448 127.801L31.1705 129.95L31.0483 130.13L31.2763 130.952L31.1297 131.726L31.3089 132.572V133.501L31.3822 133.802L31.2356 135.032V138.085L31.3822 138.639L31.203 138.916L31.3822 140.341L31.2356 141.513L31.3822 142.14V143.044L31.5857 143.72L31.3822 144.542L31.4799 145.096V147.221L31.5287 147.694L31.5043 147.767L30.9506 147.946L30.5272 147.897H28.5241L28.1006 147.995L27.3515 148.044L26.3499 148.321L25.0227 148.019L23.8745 148.166L23.1254 148.117H22.1238L21.277 148.19H20.6011L20.023 148.044L18.8504 148.272L18.1746 148.223H16.4972L15.9435 148.296L15.4956 147.824L15.4223 146.847L15.4305 146.806ZM27.2375 141.627L27.8156 141.375L27.8645 141.122L28.0436 140.674L27.7912 139.925L27.2131 139.852L26.7082 140.08L26.1789 140.178L25.6822 140.104L24.6807 140.178L24.3061 139.999L23.9315 139.974L23.5814 139.502L23.3045 139.249L23.2068 139.07L22.9055 137.694V137.368L23.0521 136.294L22.873 135.593L22.9463 135.39V134.266L23.0195 133.916V133.265L22.7427 132.336L22.9707 132.011L23.7687 132.458L24.1677 132.41L24.7947 132.483L25.8939 132.255L26.4965 132.458L26.7489 132.336L28.0029 132.157L28.3042 131.905L28.2553 131.278L28.1821 131.074L27.8319 130.724H27.5306L26.8059 130.626L26.2767 130.805L25.4298 130.626L25.1529 130.7L24.6807 130.626L23.2801 130.748L22.8811 130.871L22.6531 130.569L22.9544 129.967V127.768L22.8811 127.166L23.0033 126.514L22.9544 125.887L22.6531 125.635H21.8551L21.0571 125.732V126.359L21.1548 126.913L20.9757 127.491L21.0978 128.192L21.0001 128.77V129.494L21.0734 130.292L21.3747 130.716L21.0978 130.968L20.65 130.716H19.6729L19.3472 130.765H18.199L17.6697 130.716L17.3685 130.862L17.2952 131.359L17.3685 131.913L17.515 132.263L18.6876 132.336L18.94 132.361L19.339 132.287L19.966 132.361L20.6174 132.287L21.1141 132.059L21.3421 132.361L21.0653 132.638L21.1141 133.387L20.9106 133.786L21.0897 134.282L20.9676 134.535L21.1141 135.162L21.0408 135.463V138.964L21.4398 140.137L21.8633 140.536L22.1401 140.984L22.4903 141.285L23.3697 141.611L24.3712 141.79L25.4949 141.888L26.2685 141.684L26.7408 141.806L27.2131 141.578L27.2375 141.627Z" fill="#D1A644"/>
<path d="M30.2911 146.708L30.1934 145.185V143.435L30.0713 142.808L30.3481 141.904V141.204L30.169 140.503L30.2667 139.03L30.1201 138.753L30.3726 137.751L30.1446 136.603V135.406L30.4214 134.73L30.2993 133.729L30.4459 132.955L30.3726 132.58L30.2993 131.734V130.936L30.2016 129.958V127.907L30.2749 127.133V126.482L30.4214 125.952L30.2423 124.226V123.224L30.3156 122.948L30.2667 122.247V120.293L30.169 119.519L30.7716 119.194H32.5467L33.0434 119.291L33.5157 119.112L34.5905 119.291L34.9651 119.267L36.0644 119.446L37.0904 119.169L37.6441 119.348H39.0202L40.0462 119.275H41.2757L41.9272 119.348L43.0753 119.202L45.1517 119.324L45.9008 119.275L46.1777 119.576V120.529L46.2754 120.928L46.0474 121.726L46.2266 122.63L46.1533 123.355L46.2998 124.307L46.1207 124.837L46.2428 125.635L46.0393 126.335L46.2917 127.337L46.0148 128.012L46.2673 129.063L46.1696 130.341L46.3243 130.838L46.1696 131.611L46.2673 132.312V132.287L46.4464 133.191L46.2428 134.071V136.375L46.0148 137.499L46.365 138.647L46.1614 139.323V141.546L46.2347 141.92V142.848L46.4627 143.199L46.137 144.249L46.2347 145.153V147.083L45.681 147.661H44.1827L43.4824 147.588L42.9857 147.71H42.0575L40.8605 147.832L39.8833 147.685L39.1586 147.734H35.2827L34.8837 147.612L34.0613 147.864L32.6363 147.742H32.1884L31.1624 147.645H30.3889L30.2423 147.319L30.2911 146.741V146.708ZM41.0966 140.202L41.1943 140.3V141.497L41.349 141.619L41.8783 141.692H42.5297L42.7577 140.691V138.761L42.6356 138.158L42.7577 137.833L42.6356 136.986L42.8147 135.732L42.6682 135.284L42.7414 134.437V133.859L42.8392 133.183L42.7414 132.059L42.6682 131.587V131.09L42.4157 130.838L41.7155 130.716L41.2676 130.813L40.9419 131.139L40.6895 131.693L40.836 132.393L40.7628 132.442L40.665 133.093V133.623L40.8198 134.201L40.7465 134.624L40.8686 135.202L40.7465 135.65L40.8198 136.554L40.722 137.108V138.411L40.9745 139.184L40.95 139.559L40.6243 139.534L39.7449 139.738L39.5413 139.99L38.7922 140.113L38.3688 140.21L37.5464 140.088H36.6669V139.86L36.4878 139.738L36.1377 139.339L36.0399 138.891L35.8608 138.517L35.7142 137.564L35.9667 137.01L35.8934 136.456L35.7712 135.984V134.909L35.8445 134.632L35.7957 134.209L35.8934 133.81L35.8201 133.232L35.8689 132.409L35.7224 131.155L35.3234 130.781L34.8185 130.732L34.444 130.756L33.9961 131.253L33.7681 132.051L33.817 132.149L33.7193 132.646L33.8414 132.996L33.7681 133.745L33.8414 134.119L33.9147 135.268L33.8658 135.365L33.8902 135.74L33.7355 136.562L33.7844 136.912V138.386L33.988 138.859V139.681L34.216 139.803L34.5905 140.3L34.7127 140.748L35.3885 141.147L35.6165 141.399L35.7631 141.497L36.6669 141.725L37.0171 141.774H37.8151L38.3443 141.676L38.5479 141.749L39.3459 141.546L40.1195 141.098L40.494 140.748L41.121 140.17L41.0966 140.202Z" fill="#D1A644"/>
<path d="M45.3796 146.431L45.3064 145.658V143.557L45.2086 143.109L45.4366 142.335V141.106L45.2575 140.357L45.3064 139.884L45.4041 139.705L45.2005 138.655L45.4041 137.425L45.3064 136.896V136.473L45.1028 136.025L45.5018 134.722L45.3471 133.794L45.4692 132.768L45.3226 132.369V130.846L45.2005 130.496L45.2738 129.795V128.37L45.3471 127.271V126.017L45.4448 125.219L45.3226 124.34V123.241L45.3715 122.964L45.2738 122.491L45.3959 121.262L45.2982 119.715L45.9741 119.365L47.399 119.242L48.4006 119.47L48.7507 119.348L49.5487 119.527L50.3712 119.454L50.9493 119.503L51.4786 119.324L52.301 119.446H56.3072L57.3332 119.519L57.8625 119.446H58.8152L59.0432 119.519H60.7206L61.3232 119.747L61.1766 120.57L61.3802 121.498L61.1522 121.995L61.2988 122.899V123.973L61.4209 124.397L61.2173 125.219L61.3395 126.848L61.486 127.125L61.2581 128.248V128.851L61.3802 129.453L61.2581 130.553L61.4372 131.082L61.2581 132.108L61.3802 132.711L61.4535 133.411V133.859L61.3313 135.007V136.008L61.1766 138.158L61.3802 138.883L61.2581 139.306L61.3313 140.186L61.2336 141.586L61.3313 142.034V143.084L61.4535 143.207L61.4779 143.304L61.2255 144.233L61.2988 145.136V147.213L60.6962 147.71L59.0676 147.807L58.4406 147.758L57.5857 147.905L56.7632 147.856L56.0874 148.109L54.9881 147.832L54.1413 147.954H53.1153L51.9671 147.881H50.0373L49.337 147.807L48.539 147.881H47.5375L46.5603 147.783H45.4366L45.2901 147.482L45.3634 146.431H45.3796ZM55.5092 131.823L54.5565 130.821L53.5061 130.618L52.8547 130.471L52.529 130.52L51.8531 130.447L51.0796 130.699L50.705 130.773L49.907 131.22L49.7035 131.497L48.824 132.426L48.7752 132.776L48.6286 132.898L48.2052 133.973L47.9528 134.746L47.8795 135.52L48.083 136.367L47.9853 136.717L48.1319 137.246V138.069L48.5553 139.323L48.6775 139.624L49.0276 140.202L49.6057 140.699L49.9803 141.073L50.6317 141.326L50.705 141.529L51.4541 141.757L52.529 141.879H52.9768L53.5061 141.676H53.954L55.3057 141.179L55.4278 140.804L56.0548 140.129L56.177 140.251L56.0792 140.78L56.0304 141.431L56.1281 141.611L56.9017 141.708H57.5775L57.7241 141.456L57.8462 140.829L57.7241 140.275L57.7974 139.176L57.6997 138.728L57.7729 137.556L57.5694 136.578L57.6671 136.35L57.7404 135.903L57.6671 135.202V133.802L57.6182 133.077L57.7159 132.523V131.725L57.7892 131.001L57.7159 130.3V129.348L57.7892 128.199L57.7159 127.752L57.7892 126.522L57.5124 125.675L56.69 125.626L56.1851 125.7L55.8594 125.977L55.7128 127.206L55.664 127.605L55.7372 128.802V129.624L55.8594 130.251L55.7372 130.878V131.628L55.4848 131.831L55.5092 131.823ZM49.9803 136.171L49.8582 135.422L50.2572 134.722L50.1594 134.274L50.4119 133.973V133.794L51.0144 132.816L51.161 132.768L51.6089 132.369L52.0567 132.189L52.3091 132.214L53.4328 132.141H54.1331L55.037 132.67L55.4604 132.792L55.7861 132.719L56.1362 133.069L55.8838 133.395L55.6802 134.046L55.8594 134.624L55.7128 135.048L55.835 135.3L55.7372 136.375L55.7128 136.774L55.9164 137.425L55.7372 138.402L55.8838 138.899L56.063 139.298L55.8105 139.551L55.2324 139.599L54.6054 139.827L54.1576 140.153L53.2293 140.226L52.8058 140.153L52.358 140.202L51.4053 139.779L51.0796 139.526L50.5503 138.85L50.2246 138.321V137.995L50.078 137.621L50.1513 136.774L49.9722 136.326V136.179L49.9803 136.171Z" fill="#D1A644"/>
<path d="M60.3134 143.329L60.1343 143.182L60.1099 143.085L60.4111 141.733L60.1343 140.91L60.232 140.031L60.3786 139.258L60.3053 138.207L60.5577 137.93L60.2809 136.676V135.349L60.46 135.023L60.3134 133.093L60.5659 132.865L60.3379 131.611V130.911L60.2157 130.357L60.3134 129.103V126.978L60.4111 126.726V125.179L60.289 124.454V123.526L60.4356 123.176L60.289 122.052L60.3867 121.449L60.3379 121.474V120.423L60.2646 119.927L60.8671 119.348L61.2417 119.373L62.1211 119.3L62.8703 119.479L63.8718 119.332L64.6454 119.511H66.2251L66.9009 119.365L67.2755 119.34L68.4481 119.438H71.3225L72.0227 119.585L73.0243 119.438H75.9801L76.3058 119.715V120.887L76.3547 121.14L76.1267 121.637L76.3058 122.565L76.2081 123.338L76.4117 124.592L76.2326 125.219L76.3303 125.944L76.1023 126.319L76.3791 127.418L76.1023 127.972L76.3791 129.625L76.3058 130.675L76.3791 131.025L76.257 131.449L76.4606 133.126V133.826L76.3384 134.974V136.424L76.2163 137.947L76.4687 138.598L76.3466 139.298V140.699L76.143 141.277L76.371 142.124L76.3221 142.8L76.5013 143.296L76.2733 144.143L76.3221 144.721V147.596L76.2488 147.693L75.0763 147.791H74.4981L73.7246 147.669L72.6742 147.897H70.8258L70.2965 147.775L68.5702 147.921L67.6419 147.848H64.9385L64.8408 147.726L63.6683 147.93L63.0168 147.881H62.0153L61.7873 147.783L60.8346 147.905L60.3379 147.457V143.329H60.3134ZM65.1177 137.523L64.6128 136.497L64.7675 136.269L65.2154 136.367L65.5411 136.513L66.5427 136.636L66.7707 136.513L67.4709 136.611L67.9188 136.408L68.4725 136.505L69.5473 136.359L70.1499 136.538L70.4268 136.44L71.1759 136.489L71.5505 136.416L72.1286 136.489L72.4299 136.391H72.8777L73.407 136.066L73.5862 135.715L73.4396 134.869L73.4884 134.689L73.3093 133.94L73.1627 133.615L73.008 133.036L72.6579 132.458L71.6319 131.457L71.2818 131.204L70.956 131.107L70.4838 130.879L69.8323 130.756L69.6043 130.577L69.0751 130.431L68.7249 130.553L68.4725 130.431L67.8211 130.333L67.1208 130.48L66.8684 130.626L66.3717 130.748L65.2968 131.245L64.6942 131.571L64.3441 132.149L64.222 132.173L63.994 132.499L63.6927 133.15L63.2937 133.753L63.2693 134.03L63.0657 134.502V135.528L62.9436 136.082L63.196 137.385L63.1471 137.881L63.2204 138.728L63.4484 138.826L63.7741 139.453L63.8718 139.779L64.3441 140.178L64.6698 140.78L65.3212 141.106L65.9238 141.383L66.5019 141.66L66.9009 141.733H67.3976L68.4969 141.936H68.9936L70.0196 141.708L70.443 141.505H70.671L71.1433 141.326L71.9657 140.772L72.3403 140.373L72.894 140.023L73.293 139.095L73.3907 138.696L73.2442 138.248L72.8452 138.175L72.666 138.101H72.1367L71.6889 138.525L71.5423 138.574L70.7932 139.551L70.044 139.754L69.9463 139.982L69.1239 140.259H68.4481L66.6485 139.86L66.5019 139.714L65.9727 139.363L65.647 138.663L65.4678 138.614L65.2398 138.142L65.191 137.743L65.1177 137.515V137.523ZM71.7947 134.771L71.9169 135.072L71.7377 135.3L70.6629 134.95L70.2151 135.072L69.5636 135.145L68.7086 135.048L67.8862 134.974L66.9824 135.072L66.3065 135.121L65.5818 135.072L65.0037 135.3L64.7512 135.202L64.8245 134.803L65.0525 134.502L65.3294 133.9L65.4027 133.598L65.704 133.248L65.9808 132.825L67.2348 132.198L67.8129 132.019L68.1142 132.092H68.5376L69.7916 132.295L70.614 132.922L71.0619 133.525L71.4609 134.274L71.7866 134.771H71.7947Z" fill="#D1A644"/>
<path d="M75.3939 146.505L75.2474 145.226V143.475L75.1985 142.726L75.4021 142.002V141.252L75.1497 140.625L75.3777 139.298L75.1985 138.394L75.4265 137.295L75.3044 136.717V135.088L75.4509 134.763L75.4021 134.266L75.5487 133.012L75.3207 131.587L75.4184 131.31L75.2148 129.812L75.2637 129.209V128.305L75.3614 126.929V125.325L75.4591 124.747L75.2555 123.395L75.3777 122.597L75.2799 121.848L75.3288 121.172V120.171L75.2799 119.471L75.8825 119.194H76.3304L77.1772 119.096L78.0241 119.3L79.1233 119.202L79.9213 119.324H81.3952L82.0466 119.145L82.47 119.243H86.5007L87.2987 119.316L87.6977 119.243H89.5217L89.9451 119.291H91.0688L91.2479 119.438L91.2724 119.536L91.1258 120.464L91.2724 121.368L91.1746 121.49H91.0525L91.2561 122.565V123.64L91.4026 124.169L91.2235 125.097L91.2968 125.797L91.0444 126.245L91.3945 127.499L91.2154 128.574L91.2886 129.372L91.2154 129.999L91.3945 130.496L91.2154 131.522L91.4434 133.37L91.2398 134.999L91.2886 135.675V136.627L91.1095 137.328L91.4352 138.207L91.2561 138.981V140.805L91.1339 141.627L91.2805 142.205V143.158L91.3782 143.484L91.1746 144.184L91.2724 145.088V146.61L91.3212 147.262L90.6698 147.612H88.4957L87.9175 147.685L87.2905 147.636L85.9144 147.84L85.263 147.693L85.1897 147.62L83.3901 147.767L82.3886 147.669H81.6639L81.387 147.718H80.76L79.4328 147.62L78.5859 147.693H77.0876L76.4118 147.62L75.7359 147.718L75.2637 147.27L75.3369 146.496L75.3939 146.505ZM80.8252 133.924L80.7763 133.476L80.5727 133.102L80.7763 132.8L81.7779 132.572L82.5514 132.247L82.7306 132.222L83.3087 131.994L84.6116 132.344L85.035 132.523L85.3363 132.996L85.6376 133.745L85.7597 134.445V135.748L85.8574 136.896L85.7597 137.222L85.7108 137.995L85.7841 138.394V138.867L85.8574 139.29L85.7841 139.941L85.662 140.52L85.8655 141.269L85.89 141.546L86.4437 141.668L86.7938 141.643L87.3231 141.521L87.7954 141.049L87.7221 140.601L87.8442 140.3L87.7221 139.502V138.549L87.7954 138.272L87.7465 137.718L87.8442 137.189L87.7221 136.611L87.771 136.082V135.357L87.7221 134.86V134.258L87.6244 133.004L87.4452 132.45L86.9404 131.522L86.7368 131.318L86.0366 130.87L85.4096 130.594L84.9617 130.447H83.9846L83.4309 130.496L82.8772 130.699H82.2257L81.8756 130.903L81.4277 131.278L80.9555 131.554L80.8333 131.953L80.4832 132.002L80.361 131.88L80.5157 130.903L80.3122 130.699L79.7829 130.846L79.335 130.797L78.936 131.123V131.75L78.8383 132.149L78.9116 133.077L78.8139 133.427L78.7162 134.624L78.8953 135.349L78.8221 136.277V138.378L78.9442 139.355V140.682L78.8953 141.13L79.1966 141.456L79.9213 141.635L80.8007 141.489L80.8985 140.813L80.8007 140.161L80.8985 139.632L80.7763 138.858L80.9229 138.606V134.983L80.8252 134.233L80.8496 133.908L80.8252 133.924Z" fill="#D1A644"/>
<path d="M90.4825 146.806V145.308L90.3359 144.054V143.15L90.5639 142.401L90.4662 141.7L90.2382 141.253L90.3848 140.3V140.324L90.458 139.648L90.3115 139.225L90.5151 138.272L90.3359 137.645V135.569L90.4825 135.268L90.3848 134.421V133.395L90.4825 132.947L90.2789 131.97L90.3278 131.367L90.1242 130.268L90.1975 129.592V127.214L90.3196 126.311L90.1161 125.114V121.213L89.9695 120.114L90.6942 119.666L91.598 119.788L91.8749 119.666L92.6485 119.845L93.7233 119.642L94.4969 119.821L95.2216 119.723H96.0196L96.3941 119.544L98.0715 119.748L99.6757 119.65H101.899L102.2 119.601H105.424L106.027 119.805V121.034L106.125 121.335L105.848 121.938L106.1 122.988V124.014L106.149 124.34L105.921 124.869L106.174 126.123V127.125L106.222 127.198L105.897 127.801L106.222 129.95L106.1 130.13L106.328 130.952L106.182 131.726L106.361 132.572V133.501L106.434 133.802L106.288 135.032V138.085L106.434 138.639L106.255 138.916L106.434 140.341L106.288 141.513L106.434 142.14V143.044L106.638 143.72L106.434 144.542L106.532 145.096V147.221L106.581 147.694L106.556 147.767L106.003 147.946L105.579 147.897H103.576L103.153 147.995L102.404 148.044L101.402 148.321L100.075 148.019L98.9265 148.166L98.1774 148.117H97.1758L96.329 148.19H95.6531L95.075 148.044L93.9024 148.272L93.2266 148.223H91.5492L90.9955 148.296L90.5476 147.824L90.4743 146.847L90.4825 146.806ZM102.29 141.627L102.868 141.375L102.916 141.122L103.096 140.674L102.843 139.925L102.265 139.852L101.76 140.08L101.231 140.178L100.734 140.104L99.7327 140.178L99.3581 139.999L98.9835 139.974L98.6334 139.502L98.3565 139.249L98.2588 139.07L97.9575 137.694V137.368L98.1041 136.294L97.925 135.593L97.9983 135.39V134.266L98.0715 133.916V133.265L97.7947 132.336L98.0227 132.011L98.8207 132.458L99.2197 132.41L99.8467 132.483L100.946 132.255L101.549 132.458L101.801 132.336L103.055 132.157L103.356 131.905L103.307 131.278L103.234 131.074L102.884 130.724H102.583L101.858 130.626L101.329 130.805L100.482 130.626L100.205 130.7L99.7327 130.626L98.3321 130.748L97.9331 130.871L97.7051 130.569L98.0064 129.967V127.768L97.9331 127.166L98.0553 126.514L98.0064 125.887L97.7051 125.635H96.9071L96.1091 125.732V126.359L96.2069 126.913L96.0277 127.491L96.1499 128.192L96.0521 128.77V129.494L96.1254 130.292L96.4267 130.716L96.1499 130.968L95.702 130.716H94.7249L94.3992 130.765H93.251L92.7217 130.716L92.4205 130.862L92.3472 131.359L92.4205 131.913L92.567 132.263L93.7396 132.336L93.992 132.361L94.391 132.287L95.018 132.361L95.6694 132.287L96.1661 132.059L96.3941 132.361L96.1173 132.638L96.1661 133.387L95.9626 133.786L96.1417 134.282L96.0196 134.535L96.1661 135.162L96.0929 135.463V138.964L96.4918 140.137L96.9153 140.536L97.1921 140.984L97.5423 141.285L98.4217 141.611L99.4232 141.79L100.547 141.888L101.321 141.684L101.793 141.806L102.265 141.578L102.29 141.627Z" fill="#D1A644"/>
<path d="M120.374 147.262V144.013L120.301 143.939V142.865L120.554 142.417L120.456 141.089L120.179 140.389L120.383 138.989L120.26 138.891L120.236 138.793L120.562 137.49L120.334 136.513L120.212 135.463L120.44 134.461V134.16L120.643 133.11L120.44 132.01V131.106L120.26 130.08L120.383 129.356V128.558L120.334 128.11L120.48 126.384L120.407 125.48L120.611 125.13L120.383 123.933L120.334 123.33L120.456 122.63L120.358 121.954L120.431 120.757L120.309 119.707L121.01 119.177L121.637 119.251L122.589 119.128L123.412 119.332L124.112 119.185L124.934 119.332L125.61 119.283L126.034 119.405L126.832 119.153L128.957 119.332H132.385L132.686 119.21L134.087 119.308H136.114L136.318 119.511L136.342 119.584L136.269 120.635L136.416 121.335L136.342 122.133V123.656L136.44 124.153L136.391 124.755V126.758L136.513 126.937L136.237 128.061L136.359 128.81L136.432 129.038L136.31 130.317L136.456 130.992L136.31 131.79L136.408 132.613V133.517H136.456L136.505 133.59L136.302 134.82L136.375 135.471V136.57L136.22 137.946L136.473 138.696L136.294 139.599V141.602L136.367 141.904V143.182L136.44 143.483L136.237 143.98L136.285 144.534V144.509L136.383 145.535V147.164L135.829 147.661L135.382 147.539L133.932 147.636H133.305L132.58 147.71H132.002L131.473 148.035L130.17 147.758H125.871L124.641 147.612L123.819 147.84L122.671 147.742H121.946L121.197 147.669L120.619 147.742L120.366 147.441L120.342 147.294L120.374 147.262ZM133.159 140.756L133.061 140.153L132.882 139.949L132.409 139.876L131.335 139.949H130.585L130.007 140.072L129.657 139.998L129.356 139.77L129.478 139.396V138.72L129.6 137.995L129.421 136.969L129.494 136.741L129.421 135.789L129.494 135.691V134.388L129.421 133.834L129.494 132.759L129.592 132.035L129.413 130.781L128.533 130.602L128.379 130.675L127.532 130.553L127.353 130.732H126.555L126.53 130.707H125.382L125.081 130.781L124.332 130.634L123.957 130.683L123.509 131.106L123.607 131.554L123.656 132.303L124.03 132.401H125.179L125.529 132.328L126.082 132.45L126.555 132.377L127.051 132.23L127.499 132.157L127.646 132.336V132.711L127.467 133.183L127.516 133.785L127.442 134.258L127.54 135.186L127.442 135.935V137.059L127.54 137.507L127.393 137.979L127.491 138.451L127.442 139.078L127.491 139.379L127.695 139.827L127.491 140.006L127.263 140.055L126.49 139.958H125.936L125.512 139.909H124.91L123.811 140.186L123.558 140.536L123.509 141.236L123.859 141.635L124.356 141.684L124.828 141.562L125.781 141.635L126.107 141.684L126.604 141.562H127.133L128.208 141.684L129.356 141.586L129.755 141.659L130.154 141.537H131.359L131.856 141.488L132.23 141.611L132.808 141.537L133.085 141.212L133.036 141.032L133.11 140.731L133.159 140.756ZM129.779 126.147L129.03 125.651H128.004L127.605 125.903L127.304 126.4V126.872L127.255 126.945L127.304 127.475L127.45 127.849L127.752 128.053L128.55 128.232L128.998 128.159L129.445 128.012L129.6 127.336L129.779 126.783V126.156V126.147Z" fill="#D1A644"/>
<path d="M135.431 146.505L135.284 145.226V143.475L135.235 142.726L135.439 142.002V141.252L135.186 140.625L135.414 139.298L135.235 138.394L135.463 137.295L135.341 136.717V135.088L135.488 134.763L135.439 134.266L135.585 133.012L135.357 131.587L135.455 131.31L135.251 129.812L135.3 129.209V128.305L135.398 126.929V125.325L135.496 124.747L135.292 123.395L135.414 122.597L135.317 121.848L135.365 121.172V120.171L135.317 119.471L135.919 119.194H136.367L137.214 119.096L138.061 119.3L139.16 119.202L139.958 119.324H141.432L142.083 119.145L142.507 119.243H146.537L147.335 119.316L147.734 119.243H149.558L149.982 119.291H151.105L151.285 119.438L151.309 119.536L151.162 120.464L151.309 121.368L151.211 121.49H151.089L151.293 122.565V123.64L151.439 124.169L151.26 125.097L151.333 125.797L151.081 126.245L151.431 127.499L151.252 128.574L151.325 129.372L151.252 129.999L151.431 130.496L151.252 131.522L151.48 133.37L151.276 134.999L151.325 135.675V136.627L151.146 137.328L151.472 138.207L151.293 138.981V140.805L151.171 141.627L151.317 142.205V143.158L151.415 143.484L151.211 144.184L151.309 145.088V146.61L151.358 147.262L150.706 147.612H148.532L147.954 147.685L147.327 147.636L145.951 147.84L145.3 147.693L145.226 147.62L143.427 147.767L142.425 147.669H141.701L141.424 147.718H140.797L139.469 147.62L138.623 147.693H137.124L136.448 147.62L135.773 147.718L135.3 147.27L135.374 146.496L135.431 146.505ZM140.862 133.924L140.813 133.476L140.609 133.102L140.813 132.8L141.814 132.572L142.588 132.247L142.767 132.222L143.345 131.994L144.648 132.344L145.072 132.523L145.373 132.996L145.674 133.745L145.796 134.445V135.748L145.894 136.896L145.796 137.222L145.747 137.995L145.821 138.394V138.867L145.894 139.29L145.821 139.941L145.699 140.52L145.902 141.269L145.927 141.546L146.48 141.668L146.83 141.643L147.36 141.521L147.832 141.049L147.759 140.601L147.881 140.3L147.759 139.502V138.549L147.832 138.272L147.783 137.718L147.881 137.189L147.759 136.611L147.808 136.082V135.357L147.759 134.86V134.258L147.661 133.004L147.482 132.45L146.977 131.522L146.773 131.318L146.073 130.87L145.446 130.594L144.998 130.447H144.021L143.467 130.496L142.914 130.699H142.262L141.912 130.903L141.464 131.278L140.992 131.554L140.87 131.953L140.52 132.002L140.398 131.88L140.552 130.903L140.349 130.699L139.82 130.846L139.372 130.797L138.973 131.123V131.75L138.875 132.149L138.948 133.077L138.851 133.427L138.753 134.624L138.932 135.349L138.859 136.277V138.378L138.981 139.355V140.682L138.932 141.13L139.233 141.456L139.958 141.635L140.837 141.489L140.935 140.813L140.837 140.161L140.935 139.632L140.813 138.858L140.96 138.606V134.983L140.862 134.233L140.886 133.908L140.862 133.924Z" fill="#D1A644"/>
<path d="M150.413 146.505L150.291 144.958V142.36L150.47 141.888L150.568 141.212L150.34 140.186L150.438 139.412L150.316 139.184L150.218 138.834L150.519 137.385L150.397 136.636L150.145 135.707L150.446 134.404L150.544 133.077L150.446 131.905V131.156L150.242 130.032L150.397 129.209V128.436L150.324 128.338L150.422 127.035V126.286L150.519 125.887L150.544 125.912V124.763L150.365 123.941V123.412L150.462 122.882L150.34 122.231L150.438 121.107V120.635L150.316 119.682L150.967 119.21L151.366 119.234L152.563 119.112L153.386 119.234V119.161L153.508 119.063L155.006 119.34L155.584 119.291L156.187 119.438L157.139 119.186L158.467 119.332L159.289 119.283H166.015L166.365 119.56L166.292 120.586L166.438 121.164L166.186 122.011L166.39 122.809L166.316 123.713L166.438 124.56L166.292 124.983V126.685L166.52 127.337L166.398 128.289L166.3 128.436L166.398 129.56L166.3 130.113L166.422 131.164L166.373 131.261L166.227 131.384L166.43 132.784L166.585 133.338L166.259 134.763L166.357 135.162V137.735L166.561 138.158L166.284 139.005L166.406 140.178V140.829L166.178 141.204L166.43 142.108L166.381 142.808L166.504 143.606L166.276 144.184L166.324 144.738V144.713L166.398 145.291V146.838L166.447 147.392L166.398 147.465L164.069 147.693L163.621 147.571L162.742 147.693H161.895L161.447 147.873L160.722 147.726L160.25 147.677L158.621 147.824L157.27 147.726H155.169L154.843 147.604L153.793 147.783L153.117 147.734H152.164L151.391 147.661L150.69 147.734L150.413 147.286V146.537V146.505ZM163.393 138.525L163.442 138.052L163.043 137.1L162.595 136.497L162.147 136.269L161.675 135.895L160.999 135.797L160.747 135.593L160.299 135.544L158.695 135.097L158.393 135.145L157.97 134.999L157.245 134.901L156.341 134.624L155.918 134.299L155.69 134.119L155.543 133.745L155.568 133.419L155.519 133.142L155.747 132.768L156.195 132.466L157.221 132.238L158.068 132.01L158.866 132.157L159.191 132.133L159.989 132.385L160.714 132.988L160.942 133.484L161.716 133.81L162.465 133.883L162.864 133.582L162.937 133.484L162.839 132.784L162.514 132.385L162.261 131.831L161.862 131.603L161.683 131.4L160.73 130.822L160.283 130.773L159.305 130.374L158.882 130.472L158.035 130.292L157.612 130.439L157.213 130.463L156.586 130.586L155.885 130.659L155.438 130.781L155.291 130.96L154.794 131.139L154.395 131.489L154.143 131.815L153.842 132.515L153.614 132.768L153.491 133.492L153.54 134.242L154.143 135.243L154.517 135.642L155.421 136.017L156.447 136.513L156.7 136.538L157.547 136.79H158.222L158.597 136.839L159.599 137.165L160.046 137.238L160.193 137.336L160.47 137.409L161.219 138.012L161.317 138.289L161.366 138.818L161.186 139.144L161.089 139.494L160.69 139.844L159.485 140.218L158.76 140.015H158.108L157.359 140.137L156.806 139.909L156.203 139.762L155.78 139.461L155.405 138.883L155.177 138.386L154.925 138.158L153.947 138.085L153.597 138.061L153.32 138.24L153.296 138.614L153.475 139.038L153.679 139.714L153.825 139.942L154.322 140.495L154.395 140.642L154.973 141.22L155.926 141.546H156.252L156.626 141.692L157.302 141.741L157.652 141.814H159.004L160.38 141.586H160.828L162.131 140.886L162.709 140.308L163.238 139.608L163.287 139.005L163.385 138.508V138.484L163.393 138.525Z" fill="#D1A644"/>
<path d="M165.396 147.262V144.013L165.323 143.939V142.865L165.575 142.417L165.478 141.089L165.201 140.389L165.404 138.989L165.282 138.891L165.258 138.793L165.583 137.49L165.355 136.513L165.233 135.463L165.461 134.461V134.16L165.665 133.11L165.461 132.01V131.106L165.282 130.08L165.404 129.356V128.558L165.355 128.11L165.502 126.384L165.429 125.48L165.632 125.13L165.404 123.933L165.355 123.33L165.478 122.63L165.38 121.954L165.453 120.757L165.331 119.707L166.031 119.177L166.658 119.251L167.611 119.128L168.433 119.332L169.134 119.185L169.956 119.332L170.632 119.283L171.055 119.405L171.853 119.153L173.979 119.332H177.407L177.708 119.21L179.109 119.308H181.136L181.34 119.511L181.364 119.584L181.291 120.635L181.437 121.335L181.364 122.133V123.656L181.462 124.153L181.413 124.755V126.758L181.535 126.937L181.258 128.061L181.38 128.81L181.454 129.038L181.332 130.317L181.478 130.992L181.332 131.79L181.429 132.613V133.517H181.478L181.527 133.59L181.323 134.82L181.397 135.471V136.57L181.242 137.946L181.494 138.696L181.315 139.599V141.602L181.389 141.904V143.182L181.462 143.483L181.258 143.98L181.307 144.534V144.509L181.405 145.535V147.164L180.851 147.661L180.403 147.539L178.954 147.636H178.327L177.602 147.71H177.024L176.495 148.035L175.192 147.758H170.892L169.663 147.612L168.841 147.84L167.692 147.742H166.968L166.219 147.669L165.64 147.742L165.388 147.441L165.364 147.294L165.396 147.262ZM178.18 140.756L178.083 140.153L177.903 139.949L177.431 139.876L176.356 139.949H175.607L175.029 140.072L174.679 139.998L174.378 139.77L174.5 139.396V138.72L174.622 137.995L174.443 136.969L174.516 136.741L174.443 135.789L174.516 135.691V134.388L174.443 133.834L174.516 132.759L174.614 132.035L174.435 130.781L173.555 130.602L173.4 130.675L172.554 130.553L172.374 130.732H171.576L171.552 130.707H170.404L170.103 130.781L169.353 130.634L168.979 130.683L168.531 131.106L168.629 131.554L168.678 132.303L169.052 132.401H170.2L170.55 132.328L171.104 132.45L171.576 132.377L172.073 132.23L172.521 132.157L172.668 132.336V132.711L172.488 133.183L172.537 133.785L172.464 134.258L172.562 135.186L172.464 135.935V137.059L172.562 137.507L172.415 137.979L172.513 138.451L172.464 139.078L172.513 139.379L172.716 139.827L172.513 140.006L172.285 140.055L171.511 139.958H170.958L170.534 139.909H169.932L168.832 140.186L168.58 140.536L168.531 141.236L168.881 141.635L169.378 141.684L169.85 141.562L170.803 141.635L171.129 141.684L171.625 141.562H172.155L173.229 141.684L174.378 141.586L174.777 141.659L175.176 141.537H176.381L176.877 141.488L177.252 141.611L177.83 141.537L178.107 141.212L178.058 141.032L178.131 140.731L178.18 140.756ZM174.801 126.147L174.052 125.651H173.026L172.627 125.903L172.326 126.4V126.872L172.277 126.945L172.326 127.475L172.472 127.849L172.773 128.053L173.571 128.232L174.019 128.159L174.467 128.012L174.622 127.336L174.801 126.783V126.156V126.147Z" fill="#D1A644"/>
<path d="M180.606 146.659L180.403 144.884V143.011L180.582 142.482L180.68 141.855L180.403 140.854V140.227L180.501 139.73L180.297 138.85L180.501 137.824L180.378 137.425V136.522L180.232 135.846L180.46 134.942L180.387 134.567L180.566 133.818L180.492 132.939L180.346 132.19V131.441L180.118 130.789L180.321 129.714V125.39L180.224 124.715V122.964L180.15 122.467V120.415L180.68 119.715L182.357 119.593L183.204 119.772L183.627 119.625L184.653 119.772H186.201L186.779 119.65L187.805 119.723H188.733L189.482 119.625L190.508 119.699H192.112L193.309 119.52L193.757 119.593H194.954L195.605 119.544L196.135 119.894L195.956 120.472L196.159 121.702L195.907 122.003L196.208 123.281L196.135 123.811L196.314 124.69L196.167 125.342L196.265 126.017L196.167 126.571L196.395 127.149L195.996 127.947L196.298 129.226V130.724L196.395 131.074L196.273 131.75L196.477 132.727V134.128L196.298 135.105L196.452 136.685V137.238L196.298 137.89L196.574 138.818L196.428 139.396L196.501 140.145V141.749L196.599 141.953L196.526 143.125L196.672 143.85L196.526 144.477L196.672 144.925V147.498L195.996 147.848L195.174 147.897L194.319 148.044L194.042 147.84L192.992 148.093H189.938L189.564 148.19H188.562L187.959 148.117L186.836 148.19H185.386L185.183 148.117L184.507 148.321L183.383 148.247H181.51L181.233 148.296L180.631 147.848V146.7L180.606 146.659ZM190.964 131.905L190.337 131.481L190.011 131.156L189.612 130.976L189.49 130.83L188.611 130.455L188.187 130.634L187.837 130.455L187.113 130.358L186.184 130.732L185.736 130.879L185.183 131.204L184.857 131.457L184.303 132.035L184.124 132.157L183.798 132.857L183.652 133.061L183.53 133.387L183.408 133.94L183.131 134.787L183.18 135.488L182.976 135.984L183.18 137.035L183.106 137.311L183.228 137.735L183.603 138.582L183.554 138.932L183.733 139.754L184.132 140.056L184.662 140.683L184.841 140.829L185.142 140.976L185.394 141.228L186.543 141.7L187.17 141.627L187.699 141.749L188.472 141.7L189.425 141.35L190.15 141.147L190.923 140.324L191.176 140.503L191.054 141.033L190.98 141.709L190.834 141.912L190.712 142.466L190.834 142.694L190.761 143.296L190.288 144.119H190.215L189.889 144.371L189.165 144.746H187.886L187.332 144.844L186.657 144.493L186.184 144.371L185.785 144.143L185.606 143.997L185.28 143.524L185.207 142.678L184.458 142.401L183.961 142.327L183.383 142.604L183.261 143.402L183.611 144.029L183.79 144.607L184.263 145.186L184.792 145.715L185.671 146.114L186.372 146.317L186.819 146.366L187.642 146.244L187.788 146.423L188.79 146.545L189.042 146.366L190.02 146.114L190.492 145.91L190.915 145.813L191.192 145.633L191.469 145.536L192.267 144.607L192.544 143.679L192.642 143.728L192.821 143.125L192.87 142.523L192.796 142.148L192.845 142.075L192.943 141.399L192.739 140.927L192.837 140.65L192.788 139.999L192.91 139.746V138.72L192.813 138.346L192.69 137.173L192.813 136.945V136.041L192.91 135.292L192.837 134.795V133.769L192.764 132.866L192.91 131.465L192.813 130.862L192.234 130.716H191.412L191.208 130.862L191.257 131.685L190.98 131.913L190.964 131.905ZM185.061 136.106V135.308L185.313 134.258L185.712 133.208L186.038 133.061L186.339 132.686L187.015 132.263H187.642L187.992 132.165L188.766 132.214L189.417 132.336L190.443 132.76L190.997 133.012L191.046 133.46L190.866 133.712L190.793 134.185L190.94 134.812L190.793 135.536V136.009L190.891 136.66V137.336L190.818 137.662V138.264L190.94 138.818L191.086 139.095L190.907 139.396H190.484L189.686 139.771L189.36 139.917L188.562 140.064L187.959 139.99L187.731 140.064L187.031 139.917L186.331 139.543L185.834 139.095L185.557 138.565L185.305 137.442L185.158 137.466L184.906 136.538L185.052 136.115L185.061 136.106Z" fill="#D1A644"/>
<path d="M195.418 147.433V144.184L195.239 144.005V142.93L195.491 142.026V141.147L195.312 140.617V140.121L195.434 138.948L195.312 138.802L195.288 138.704L195.565 137.531L195.312 136.652V135.349L195.565 134.649L195.443 133.826L195.565 133.126L195.467 132.076V131.147L195.263 130.423L195.418 129.519V127.019L195.491 126.595V125.716L195.565 124.967L195.443 124.088V120.358L195.345 119.78L196.045 119.308L196.574 119.405H197.698L198.17 119.479L199.172 119.405L199.595 119.528L200.597 119.43L200.972 119.503L201.623 119.3H202.201L203.724 119.479L204.326 119.405H208.976L210.58 119.503H211.28L211.378 119.707L211.305 120.855L211.451 121.628L211.223 122.027L211.427 122.931V123.957L211.525 124.283L211.427 125.382L211.329 125.529V126.905L211.508 127.507L211.362 128.061L211.411 128.639V130.618L211.459 130.822L211.256 131.424L211.533 132.572V133.745L211.305 134.771L211.427 136.22V137.246L211.272 138.02L211.525 138.745L211.378 139.673V141.57L211.5 141.798L211.402 143.174L211.525 143.703L211.321 144.306L211.419 145.707V147.254L210.914 147.807L210.613 147.71L209.334 147.832L208.837 147.759L207.958 147.856H206.981L206.053 148.003L205.377 147.905H200.646L199.644 147.759L198.716 147.962L197.837 147.889H197.136L196.664 147.84H195.589L195.443 147.636L195.394 147.433H195.418ZM200.996 133.948L200.768 133.476L200.695 133.077L200.972 132.849H201.273L201.419 132.751L202.046 132.548L202.543 132.247L202.869 132.222L203.642 131.97L204.196 132.222L204.921 132.426L205.67 133.305V133.957L205.873 134.535L205.751 135.536L205.849 135.658V136.611L205.727 137.409L205.849 138.085V138.834L205.922 139.135L205.849 140.283L205.776 140.585L205.922 141.212L206.15 141.562L206.574 141.635H207.771L207.868 141.033L207.795 140.707L207.942 140.21L207.763 139.486V138.606L207.885 138.052L207.763 137.352L207.86 136.904L207.787 136.505L207.836 135.878L207.763 134.877L207.787 134.478L207.689 133.028L207.437 132.304L206.81 131.4L206.313 131.05L205.36 130.553L204.913 130.504H203.716L202.836 130.83L202.283 130.756L201.957 130.936L201.102 131.587L200.898 131.986L200.67 131.888L200.768 131.009L200.947 130.056L200.801 129.258L200.874 129.136V127.662L200.825 126.986L200.874 126.661L200.825 126.082L200.198 125.635H199.693L199.139 125.684L198.863 126.384V128.932L198.985 130.056V130.936L198.757 131.538L198.83 132.092L199.009 132.694L198.96 133.395L198.838 133.794L198.96 134.518L198.814 134.893L198.993 135.365L198.789 136.09L198.944 136.489V137.564L198.895 138.093L198.968 138.565L198.895 138.916L198.797 140.292L198.895 140.666L198.92 141.041L199.066 141.513L199.913 141.66L200.564 141.537L200.792 141.114L200.841 140.837V139.86L200.792 139.363L200.915 139.062L200.817 138.688L200.996 137.914L200.849 137.564L200.874 137.189L200.776 136.766L201.029 135.593L200.882 135.496L200.809 134.844L200.882 134.616L200.98 133.965L200.996 133.948Z" fill="#D1A644"/>
<path d="M210.548 146.806V145.308L210.401 144.054V143.15L210.629 142.401L210.531 141.7L210.303 141.253L210.45 140.3V140.324L210.523 139.648L210.377 139.225L210.58 138.272L210.401 137.645V135.569L210.548 135.268L210.45 134.421V133.395L210.548 132.947L210.344 131.97L210.393 131.367L210.189 130.268L210.263 129.592V127.214L210.385 126.311L210.181 125.114V121.213L210.035 120.114L210.759 119.666L211.663 119.788L211.94 119.666L212.714 119.845L213.788 119.642L214.562 119.821L215.287 119.723H216.085L216.459 119.544L218.137 119.748L219.741 119.65H221.964L222.265 119.601H225.49L226.092 119.805V121.034L226.19 121.335L225.913 121.938L226.166 122.988V124.014L226.214 124.34L225.986 124.869L226.239 126.123V127.125L226.288 127.198L225.962 127.801L226.288 129.95L226.166 130.13L226.394 130.952L226.247 131.726L226.426 132.572V133.501L226.499 133.802L226.353 135.032V138.085L226.499 138.639L226.32 138.916L226.499 140.341L226.353 141.513L226.499 142.14V143.044L226.703 143.72L226.499 144.542L226.597 145.096V147.221L226.646 147.694L226.621 147.767L226.068 147.946L225.644 147.897H223.641L223.218 147.995L222.469 148.044L221.467 148.321L220.14 148.019L218.992 148.166L218.243 148.117H217.241L216.394 148.19H215.718L215.14 148.044L213.968 148.272L213.292 148.223H211.614L211.061 148.296L210.613 147.824L210.54 146.847L210.548 146.806ZM222.355 141.627L222.933 141.375L222.982 141.122L223.161 140.674L222.908 139.925L222.33 139.852L221.825 140.08L221.296 140.178L220.799 140.104L219.798 140.178L219.423 139.999L219.049 139.974L218.699 139.502L218.422 139.249L218.324 139.07L218.023 137.694V137.368L218.169 136.294L217.99 135.593L218.063 135.39V134.266L218.137 133.916V133.265L217.86 132.336L218.088 132.011L218.886 132.458L219.285 132.41L219.912 132.483L221.011 132.255L221.614 132.458L221.866 132.336L223.12 132.157L223.421 131.905L223.373 131.278L223.299 131.074L222.949 130.724H222.648L221.923 130.626L221.394 130.805L220.547 130.626L220.27 130.7L219.798 130.626L218.397 130.748L217.998 130.871L217.77 130.569L218.072 129.967V127.768L217.998 127.166L218.12 126.514L218.072 125.887L217.77 125.635H216.972L216.174 125.732V126.359L216.272 126.913L216.093 127.491L216.215 128.192L216.117 128.77V129.494L216.191 130.292L216.492 130.716L216.215 130.968L215.767 130.716H214.79L214.464 130.765H213.316L212.787 130.716L212.486 130.862L212.412 131.359L212.486 131.913L212.632 132.263L213.805 132.336L214.057 132.361L214.456 132.287L215.083 132.361L215.735 132.287L216.231 132.059L216.459 132.361L216.182 132.638L216.231 133.387L216.028 133.786L216.207 134.282L216.085 134.535L216.231 135.162L216.158 135.463V138.964L216.557 140.137L216.98 140.536L217.257 140.984L217.607 141.285L218.487 141.611L219.488 141.79L220.612 141.888L221.386 141.684L221.858 141.806L222.33 141.578L222.355 141.627Z" fill="#D1A644"/>
<path d="M225.457 146.505L225.335 144.958V142.36L225.514 141.888L225.612 141.212L225.384 140.186L225.482 139.412L225.359 139.184L225.262 138.834L225.563 137.385L225.441 136.636L225.188 135.707L225.49 134.404L225.587 133.077L225.49 131.905V131.156L225.286 130.032L225.441 129.209V128.436L225.368 128.338L225.465 127.035V126.286L225.563 125.887L225.587 125.912V124.763L225.408 123.941V123.412L225.506 122.882L225.384 122.231L225.482 121.107V120.635L225.359 119.682L226.011 119.21L226.41 119.234L227.607 119.112L228.429 119.234V119.161L228.551 119.063L230.05 119.34L230.628 119.291L231.23 119.438L232.183 119.186L233.51 119.332L234.333 119.283H241.059L241.409 119.56L241.336 120.586L241.482 121.164L241.23 122.011L241.433 122.809L241.36 123.713L241.482 124.56L241.336 124.983V126.685L241.564 127.337L241.441 128.289L241.344 128.436L241.441 129.56L241.344 130.113L241.466 131.164L241.417 131.261L241.27 131.384L241.474 132.784L241.629 133.338L241.303 134.763L241.401 135.162V137.735L241.604 138.158L241.327 139.005L241.45 140.178V140.829L241.222 141.204L241.474 142.108L241.425 142.808L241.547 143.606L241.319 144.184L241.368 144.738V144.713L241.441 145.291V146.838L241.49 147.392L241.441 147.465L239.113 147.693L238.665 147.571L237.785 147.693H236.939L236.491 147.873L235.766 147.726L235.294 147.677L233.665 147.824L232.313 147.726H230.213L229.887 147.604L228.836 147.783L228.161 147.734H227.208L226.434 147.661L225.734 147.734L225.457 147.286V146.537V146.505ZM238.437 138.525L238.486 138.052L238.087 137.1L237.639 136.497L237.191 136.269L236.719 135.895L236.043 135.797L235.79 135.593L235.343 135.544L233.738 135.097L233.437 135.145L233.014 134.999L232.289 134.901L231.385 134.624L230.962 134.299L230.734 134.119L230.587 133.745L230.612 133.419L230.563 133.142L230.791 132.768L231.239 132.466L232.265 132.238L233.111 132.01L233.909 132.157L234.235 132.133L235.033 132.385L235.758 132.988L235.986 133.484L236.759 133.81L237.508 133.883L237.908 133.582L237.981 133.484L237.883 132.784L237.557 132.385L237.305 131.831L236.906 131.603L236.727 131.4L235.774 130.822L235.326 130.773L234.349 130.374L233.926 130.472L233.079 130.292L232.655 130.439L232.256 130.463L231.629 130.586L230.929 130.659L230.481 130.781L230.335 130.96L229.838 131.139L229.439 131.489L229.187 131.815L228.885 132.515L228.657 132.768L228.535 133.492L228.584 134.242L229.187 135.243L229.561 135.642L230.465 136.017L231.491 136.513L231.743 136.538L232.59 136.79H233.266L233.641 136.839L234.642 137.165L235.09 137.238L235.237 137.336L235.514 137.409L236.263 138.012L236.36 138.289L236.409 138.818L236.23 139.144L236.132 139.494L235.733 139.844L234.528 140.218L233.804 140.015H233.152L232.403 140.137L231.849 139.909L231.247 139.762L230.823 139.461L230.449 138.883L230.221 138.386L229.968 138.158L228.991 138.085L228.641 138.061L228.364 138.24L228.34 138.614L228.519 139.038L228.722 139.714L228.869 139.942L229.366 140.495L229.439 140.642L230.017 141.22L230.97 141.546H231.296L231.67 141.692L232.346 141.741L232.696 141.814H234.048L235.424 141.586H235.872L237.175 140.886L237.753 140.308L238.282 139.608L238.331 139.005L238.429 138.508V138.484L238.437 138.525Z" fill="#D1A644"/>
<path d="M1.90518 165.436L1.73418 165.778L1.39219 165.803L0.553481 165.591L0.423196 164.964L0.529052 164.467L0.618623 164.272L0.553481 163.669L0.618623 163.564L0.529052 162.766L0.439482 162.139V160.95L0.46391 160.673L0.553481 159.679L0.398768 158.971L0.439482 158.393L0.569766 157.896L0.480196 157.204L0.545338 156.683V155.307L0.480196 155.136L0.520909 154.509V153.988L0.431339 153.923L0.390625 153.344L0.545338 152.546L0.675622 152.481L0.830335 151.985L1.35147 151.944L1.91332 152.033L2.21461 152.4V153.458L2.30418 154.151L2.19832 155.095L2.26346 155.592L2.17389 155.999L2.30418 156.577L2.17389 156.813L2.13318 157.204L2.26346 157.44L2.47518 157.115L3.0126 156.748L3.33831 156.471L3.87573 156.317L5.10529 156.121L5.53686 156.162L6.058 156.268L6.7257 156.463L7.24684 156.83H7.31198L8.02041 157.522L8.32169 158.083L8.41126 158.32L8.77768 159.264L8.94868 160.665L9.05454 161.569L8.72883 162.945L8.5334 163.507L7.93084 164.581L7.3527 165.184L6.53028 165.681L5.79743 165.941H5.39029L5.34958 166.006L4.29101 165.941L3.79431 165.746H3.45231L3.1266 165.469L2.80089 165.339L2.09247 164.63H1.8319L1.98661 165.103L1.96218 165.404L1.92147 165.428L1.90518 165.436Z" fill="white"/>
<path d="M14.6244 162.415L14.6651 162.757L14.8606 163.165L15.0153 163.205L15.2921 163.808L15.7481 164.109L15.8784 164.239L17.4337 164.581H18.0118L18.7202 164.345L18.8098 164.15L19.4531 163.979L20.0964 163.14L20.2266 163.099L20.6175 162.733H21.0735L21.2282 162.798L21.5702 162.863L21.7005 163.254L21.6109 163.596L21.2689 164.394L20.7966 164.695L20.4709 165.037L19.7625 165.51L19.3554 165.664H19.1599L18.7935 165.835L17.906 166.031H17.4744L16.5298 165.86H16.0983L15.7563 165.795L15.2596 165.559L14.7384 165.322L14.1766 165.046L13.8997 164.524L13.4926 164.182L13.403 163.906L13.1261 163.368L12.9307 163.279L12.8656 162.546L12.9063 162.114L12.6946 160.99L12.8004 160.518V159.631L12.9714 159.223L12.9959 158.987L13.3379 158.466L13.5984 157.904L13.7939 157.627L13.8997 157.603L14.201 157.106L14.7221 156.829L15.6504 156.398L16.082 156.292L16.2937 156.162L16.8963 156.031L17.4581 156.121L17.6698 156.227L17.9711 156.121L18.4271 156.251L18.6225 156.406L19.1844 156.512L19.5915 156.707L19.8684 156.797L20.1696 157.009L21.0572 157.872L21.3585 158.368L21.4888 158.865L21.6191 159.142L21.7738 159.785L21.7331 159.94L21.8633 160.673L21.7086 160.974L21.2526 161.251H20.8618L20.6012 161.341L20.1045 161.275L19.7788 161.341L19.1355 161.3L18.8994 161.389L18.3782 161.235L17.45 161.365L16.9777 161.275L16.5868 161.446L15.9843 161.357L15.7888 161.463L14.9257 161.357L14.6488 161.227L14.258 161.137L14.1277 161.332L14.5593 162.22L14.6244 162.415Z" fill="white"/>
<path d="M30.4051 164.207L30.5598 164.101V163.694L30.8611 162.831L30.9262 162.505L31.2519 161.984L31.3415 161.683L31.3171 161.512L31.5776 160.95L31.8382 160.583L31.9441 160.087L32.0336 159.997L32.3593 159.289L32.571 158.531L32.742 158.189L33.0433 157.286L33.3202 156.748L33.9065 156.341H34.2729L34.6393 156.447L35.0464 156.813L35.0057 157.155L34.2729 158.556L34.0775 159.134L34.0367 159.37L33.6296 160.062L33.7192 160.274L33.2632 160.917L33.198 161.113L33.027 161.308L32.8723 161.886L32.6118 162.163L32.5059 162.766L32.4 163.002L32.2291 163.222L31.9033 164.06L31.5369 164.964L31.2763 165.436L30.9995 166.259L30.8448 166.43L30.6086 166.951L30.4784 167.146L30.3074 167.602L29.8514 167.969L29.7455 168.229L29.2081 168.466L28.8417 168.962L28.6707 169.003L28.3042 169.239L27.5958 169.516L26.9037 169.646L26.5617 169.581L26.1057 169.711L25.8044 169.671L25.5683 169.068L25.5927 168.726L25.6578 168.531L26.3907 168.205L26.863 168.099H27.2294L27.7912 167.839L28.2472 167.366L28.9394 166.91L29.3465 166.283L29.6071 166.177L29.7781 165.746H29.4768L29.0697 165.274L29.1104 165.143L28.6137 164.256L28.5729 163.914L28.4019 163.759L28.1251 163.181L28.0192 162.855V162.578L27.8238 162.122L27.4167 161.43L27.3271 161.389L27.1724 160.722L26.8955 160.266L26.8711 160.095L26.6594 159.622L26.4233 159.427L26.2685 158.719L26.0487 158.198L26.0243 157.921L25.6578 157.4L25.4624 156.773L25.723 156.496L26.1301 156.325L26.3011 156.349L26.4965 156.26L26.9525 156.536L27.3841 157.139L27.7505 157.937L27.9622 158.645L28.1821 158.971L28.2717 159.337L28.4671 159.704L28.4915 159.964L28.6625 160.266L28.8987 160.893L29.1755 161.455L29.1999 161.691L29.4768 162.228L29.4524 162.529L29.7129 162.92L29.7536 163.222L30.0956 163.889L30.4214 164.191L30.4051 164.207Z" fill="white"/>
<path d="M43.5801 156.186H44.1664L44.7689 156.357L45.1598 156.512L45.6972 156.854L46.1288 157.009V157.074L46.6499 157.57L46.9105 158.043L47.2362 158.385L47.5782 158.987L47.6433 159.508V160.005L47.7736 160.543L47.7329 161.121L47.5619 162.888L47.4316 163.165L47.0652 164.068L46.6581 164.565L45.9904 165.192L45.5588 165.404L44.8911 165.705L44.0687 165.795L43.7267 165.925H43.0834L42.3505 166.014L41.577 165.778L41.3653 165.583L40.893 165.477L40.6976 165.322L40.266 165.086L40.2008 164.915L39.5087 164.353L39.3133 164.011L39.1016 163.791L38.9061 163.165L38.7351 162.277L38.5234 161.886L38.5642 161.218L38.6944 160.445L38.5886 159.924L39.1097 158.735L39.1993 158.458L39.4599 157.896L39.6716 157.636L40.1031 157.057L40.5347 156.886L40.7546 156.732L41.1454 156.642L41.6014 156.365L41.7073 156.211H42.2935L42.2528 156.235L43.0101 156.129H43.2707L43.6371 156.17L43.5801 156.186Z" fill="white"/>
<path d="M53.9539 159.395L54.0434 160.038V163.165L53.9132 163.385L54.019 164.052L53.9294 164.508L54.019 165.07L53.9294 165.648L53.1722 165.779L52.5452 165.624L52.2846 165.347L52.3253 164.956V163.816L52.2195 162.977V161.17L52.2846 160.372L52.1299 159.745L52.2195 158.711L52.309 158.409L52.2439 157.611L52.3335 157.269V156.732L52.6755 156.455L53.0663 156.496L53.5223 156.366L53.6933 156.537L53.563 157.375L53.6689 157.481L53.9702 157.44L54.076 157.098L54.4832 156.862L54.874 156.537L55.1753 156.366H55.7371L56.2094 156.195L56.6817 156.154H57.5204L57.9113 156.284L58.4487 156.52L59.0512 156.911L59.2222 157.082L59.6538 157.88L59.8085 158.352L59.8981 159.427V159.948L59.9388 160.38V161.007L59.8981 161.463L60.004 161.96L59.9144 162.416L59.9551 162.888L59.89 163.124V163.946L59.9958 164.639L59.89 164.899L59.9551 165.29L59.548 165.697L59.092 165.803L58.7907 165.827L58.3184 165.722L58.294 165.485L58.123 164.842L58.2288 164.345L58.294 163.784L58.2288 163.417V163.01L58.1637 162.668L58.2044 162L58.294 161.723L58.2044 160.73V159.606L58.0985 159.004L57.838 158.36L57.5774 157.953L57.211 157.799L56.0873 157.497L55.5906 157.693L55.4359 157.717L54.7681 157.994L53.905 158.19L53.734 158.45L53.905 158.776L53.9457 159.167L53.9213 159.443L53.9539 159.395Z" fill="white"/>
<path d="M71.1758 157.131V156.487L71.2816 155.95L71.1758 155.413V154.704L71.1106 153.67L71.1513 153.328L71.2816 152.27L71.5585 152.033L71.99 151.968L72.6985 152.009L72.9346 152.742L72.8695 153.8L72.9346 154.191L72.8695 155.185V156.007L72.9346 156.61L72.8695 157.237V157.929L72.7799 158.401L72.8206 159.028V160.233L72.8858 160.836L72.8206 161.227L72.731 161.422L72.902 162.261L72.8369 163.27L72.9265 163.661L72.8613 164.606L72.9672 165.078L72.8613 165.616L72.731 165.827H72.1529L71.4852 165.738L71.3956 165.583L71.4363 165.021L71.5259 164.565L71.42 164.459L70.8826 165.037L70.7768 165.363L69.6124 165.795H69.2215L68.7655 165.966H68.3747L67.4464 165.86L66.8031 165.664L66.738 165.493L66.1761 165.274L65.8504 164.948L65.3537 164.516L65.0524 164.02L64.9465 163.759L64.5801 162.684V161.976L64.4498 161.52L64.5394 161.218L64.3684 160.486L64.4335 159.818L64.6453 159.15L65.0117 158.222L65.142 158.116L65.1827 157.815L65.94 157.017L66.111 156.781L66.8031 156.39L67.1288 156.325L67.7965 156.105L68.3747 156.17L68.6515 156.129L69.2134 156.259L70.1172 156.43L70.9396 157.294L71.1513 157.123L71.1758 157.131Z" fill="white"/>
<path d="M97.9328 165.949L97.5257 165.844L96.858 166.015L95.889 165.925L95.0258 165.77L94.2686 165.493L93.9673 165.233L93.7311 164.842L93.3647 164.5L93.0227 163.49V160.469L93.0879 160.209L92.9576 159.671L93.0634 159.451L92.9087 159.02L93.0797 158.678L93.039 158.035L93.2752 157.798L93.0797 157.538L92.6482 157.733L92.0863 157.798L91.5489 157.733L91.2069 157.798L90.9952 157.774L89.9855 157.709L89.8552 157.408L89.79 156.935L89.8552 156.504L90.1158 156.373L90.5718 156.414H91.5652L91.842 156.373H92.6807L93.0716 156.585L93.3077 156.373L93.0471 156.007L92.982 155.315V154.688L93.0716 154.191L92.9657 153.589L93.1204 153.092L93.0309 152.62V152.082L93.723 151.993H94.4151L94.6757 152.204L94.7164 152.742L94.6106 153.304L94.6757 153.825V155.722L94.4151 156.243L94.6106 156.504L94.9526 156.398L96.1577 156.292L96.5648 156.357L96.801 156.292L97.5338 156.447L97.9898 156.292L98.6168 156.382H98.8774L99.1787 156.683L99.2438 156.854L99.2845 157.391L99.0239 157.611L97.9491 157.766L97.7374 157.872L97.2163 157.701L96.2635 157.896L95.7261 157.831L95.3841 157.872L94.692 157.481L94.4966 157.758L94.7327 158.556V159.118L94.6676 159.419V160.388L94.6024 160.559L94.7571 161.161L94.6268 162.09V162.367L94.8874 163.555L94.977 163.71L95.2131 163.93L95.5144 164.337L95.8401 164.362L96.1658 164.516L97.029 164.451L97.4605 164.516L97.9165 164.427L98.3481 164.231L98.8448 164.296L99.0565 164.94L98.9018 165.331L98.8611 165.55L98.3644 165.762L97.9572 165.958L97.9328 165.949Z" fill="white"/>
<path d="M105.718 159.696L105.653 159.891L105.718 160.453L105.848 160.543L105.636 161.552L105.726 161.919L105.701 162.245L105.832 162.546L105.677 163.214L105.767 163.539L105.661 163.8L105.701 164.231V165.07L105.661 165.306L105.465 165.673L104.904 165.779L104.171 165.648L104.04 165.241L104.016 164.915L103.926 164.59L104.016 163.401L104.081 163.1L104.016 162.692L104.057 162.236V161.308L103.926 160.966L104.097 160.339L103.943 159.932L104.073 159.606L103.967 158.979L104.073 158.637L104.114 158.035L103.959 157.514L103.894 157.041L104.089 156.52V155.763L103.983 154.794V152.595L104.22 151.993L104.692 151.952H105.123L105.661 152.343L105.701 152.84L105.661 153.117L105.701 153.695V154.965L105.636 155.071L105.767 155.763L105.612 156.585L105.522 157.343L105.718 157.432L105.889 157.09L106.622 156.528L106.898 156.374L107.371 156.439L108.128 156.162H109.162L109.553 156.203L110.375 156.634L110.807 156.936L111.344 157.709L111.556 158.336L111.646 159.59L111.621 159.932L111.686 160.795L111.646 161.333L111.711 161.675L111.621 162.065L111.727 162.668L111.621 163.14V163.898L111.776 164.525L111.646 164.956L111.711 165.233L111.621 165.754H110.587L110.221 165.689L110.025 165.388L109.895 164.85L109.96 164.59L110.025 163.596L109.96 163.336V162.692L109.854 162.114L109.96 161.422V160.6L109.871 160.494L109.976 159.631L109.805 159.134V158.572L109.162 157.815L108.535 157.644L108.063 157.432L107.395 157.644L107.118 157.668L106.687 157.929L106.149 158.1L106.019 158.19H105.759L105.522 158.385L105.587 158.727L105.783 159.134L105.693 159.696H105.718Z" fill="white"/>
<path d="M118.119 162.415L118.16 162.757L118.355 163.165L118.51 163.205L118.787 163.808L119.243 164.109L119.373 164.239L120.928 164.581H121.506L122.215 164.345L122.304 164.15L122.948 163.979L123.591 163.14L123.721 163.099L124.112 162.733H124.568L124.723 162.798L125.065 162.863L125.195 163.254L125.106 163.596L124.764 164.394L124.291 164.695L123.966 165.037L123.257 165.51L122.85 165.664H122.655L122.288 165.835L121.401 166.031H120.969L120.024 165.86H119.593L119.251 165.795L118.754 165.559L118.233 165.322L117.671 165.046L117.394 164.524L116.987 164.182L116.898 163.906L116.621 163.368L116.425 163.279L116.36 162.546L116.401 162.114L116.189 160.99L116.295 160.518V159.631L116.466 159.223L116.49 158.987L116.832 158.466L117.093 157.904L117.288 157.627L117.394 157.603L117.696 157.106L118.217 156.829L119.145 156.398L119.577 156.292L119.788 156.162L120.391 156.031L120.953 156.121L121.164 156.227L121.466 156.121L121.922 156.251L122.117 156.406L122.679 156.512L123.086 156.707L123.363 156.797L123.664 157.009L124.552 157.872L124.853 158.368L124.983 158.865L125.114 159.142L125.268 159.785L125.228 159.94L125.358 160.673L125.203 160.974L124.747 161.251H124.356L124.096 161.341L123.599 161.275L123.273 161.341L122.63 161.3L122.394 161.389L121.873 161.235L120.945 161.365L120.472 161.275L120.081 161.446L119.479 161.357L119.283 161.463L118.42 161.357L118.143 161.227L117.753 161.137L117.622 161.332L118.054 162.22L118.119 162.415Z" fill="white"/>
<path d="M151.016 163.108L150.926 163.539L150.885 164.06L150.429 164.663L149.933 165.16L148.809 165.762H148.418L147.229 165.958H146.065L145.764 165.892L145.185 165.852L144.86 165.721H144.583L143.76 165.445L143.264 164.948L143.199 164.818L142.767 164.345L142.637 164.15L142.466 163.572L142.311 163.205L142.335 162.88L142.572 162.725L142.873 162.749L143.712 162.815L143.923 163.01L144.119 163.442L144.444 163.938L144.811 164.199L145.332 164.329L145.804 164.524L146.448 164.419H147.009L147.636 164.59L148.671 164.264L149.013 163.963L149.102 163.661L149.257 163.385L149.216 162.929L149.127 162.692L148.483 162.171L148.247 162.106L148.117 162.017L147.726 161.951L146.863 161.675L146.537 161.634H145.959L145.226 161.422L145.014 161.398L144.127 160.966L143.353 160.64L143.028 160.298L142.506 159.435L142.466 158.792L142.572 158.165L142.767 157.945L143.028 157.343L143.239 157.066L143.581 156.764L144.013 156.61L144.143 156.455L144.534 156.349L145.137 156.284L145.674 156.178L146.016 156.154L146.382 156.023L147.115 156.178L147.482 156.089L148.32 156.431L148.711 156.471L149.534 156.968L149.688 157.139L150.03 157.334L150.25 157.807L150.527 158.149L150.617 158.751L150.552 158.841L150.21 159.101L149.566 159.036L148.899 158.759L148.703 158.328L148.076 157.807L147.384 157.587L147.107 157.611L146.415 157.481L145.682 157.676L144.795 157.872L144.404 158.132L144.208 158.458L144.249 158.694L144.225 158.971L144.355 159.297L144.55 159.452L144.917 159.728L145.69 159.965L146.317 160.054L146.684 160.184L146.944 160.144L148.32 160.535L148.711 160.575L148.923 160.746L149.501 160.836L149.908 161.162L150.299 161.357L150.69 161.878L151.032 162.701L150.991 163.108V163.132L151.016 163.108Z" fill="white"/>
<path d="M159.77 164.207L159.924 164.101V163.694L160.226 162.831L160.291 162.505L160.616 161.984L160.706 161.683L160.682 161.512L160.942 160.95L161.203 160.583L161.309 160.087L161.398 159.997L161.724 159.289L161.936 158.531L162.107 158.189L162.408 157.286L162.685 156.748L163.271 156.341H163.637L164.004 156.447L164.411 156.813L164.37 157.155L163.637 158.556L163.442 159.134L163.401 159.37L162.994 160.062L163.084 160.274L162.628 160.917L162.563 161.113L162.392 161.308L162.237 161.886L161.976 162.163L161.87 162.766L161.765 163.002L161.594 163.222L161.268 164.06L160.901 164.964L160.641 165.436L160.364 166.259L160.209 166.43L159.973 166.951L159.843 167.146L159.672 167.602L159.216 167.969L159.11 168.229L158.573 168.466L158.206 168.962L158.035 169.003L157.669 169.239L156.96 169.516L156.268 169.646L155.926 169.581L155.47 169.711L155.169 169.671L154.933 169.068L154.957 168.726L155.022 168.531L155.755 168.205L156.227 168.099H156.594L157.156 167.839L157.612 167.366L158.304 166.91L158.711 166.283L158.972 166.177L159.143 165.746H158.841L158.434 165.274L158.475 165.143L157.978 164.256L157.937 163.914L157.766 163.759L157.49 163.181L157.384 162.855V162.578L157.188 162.122L156.781 161.43L156.692 161.389L156.537 160.722L156.26 160.266L156.236 160.095L156.024 159.622L155.788 159.427L155.633 158.719L155.413 158.198L155.389 157.921L155.022 157.4L154.827 156.773L155.087 156.496L155.495 156.325L155.666 156.349L155.861 156.26L156.317 156.536L156.749 157.139L157.115 157.937L157.327 158.645L157.547 158.971L157.636 159.337L157.832 159.704L157.856 159.964L158.027 160.266L158.263 160.893L158.54 161.455L158.564 161.691L158.841 162.228L158.817 162.529L159.077 162.92L159.118 163.222L159.46 163.889L159.786 164.191L159.77 164.207Z" fill="white"/>
<path d="M176.609 165.388L176.397 165.664L175.575 165.754H174.541L174.435 165.689L173.808 165.73H172.448L172.318 165.624L171.65 165.754H171.243L170.404 165.73L169.582 165.664L168.979 165.77L168.507 165.599L168.376 164.801L168.767 164.329L169.223 164.223L169.696 164.353L170.038 164.313L170.233 164.353L171.121 164.288L171.658 164.59L171.829 164.313L171.723 163.881V163.555L171.568 163.034L171.658 162.367L171.568 162.212L171.739 161.503L171.699 161.227V160.73L171.739 160.534L171.699 160.274V159.476L171.805 159.24L171.699 158.483L171.764 158.206L171.674 158.035L171.609 157.277V156.756L171.764 156.154L171.658 155.722L171.723 154.729L171.634 154.256L171.764 153.866L171.959 153.54L171.788 153.344L171.528 153.279L170.966 153.385L170.428 153.32L169.59 153.41L168.832 153.32L168.507 153.019L168.466 152.717L168.596 152.18L169.069 151.919L169.647 151.985H170.119L170.681 152.025L171.072 151.96H172.692L172.993 152.09L173.425 152.587L173.36 152.994L173.449 153.491L173.254 153.923L173.36 154.55V155.258L173.401 155.665V156.439L173.49 157.497L173.384 157.904V158.792L173.344 159.004L173.474 159.411L173.368 160.681L173.433 161.503L173.303 161.805L173.409 162.326L173.498 162.521L173.409 163.083L173.303 163.987L173.042 164.288L173.254 164.549L174.288 164.288L174.655 164.378L175.233 164.288L175.387 164.199L176.014 164.239L176.658 164.541V164.972L176.617 165.363L176.609 165.388Z" fill="white"/>
<path d="M189.548 165.388L189.336 165.664L188.514 165.754H187.48L187.374 165.689L186.747 165.73H185.387L185.257 165.624L184.589 165.754H184.182L183.343 165.73L182.521 165.664L181.918 165.77L181.446 165.599L181.315 164.801L181.706 164.329L182.162 164.223L182.635 164.353L182.977 164.313L183.172 164.353L184.06 164.288L184.597 164.59L184.768 164.313L184.662 163.881V163.555L184.507 163.034L184.597 162.367L184.507 162.212L184.678 161.503L184.638 161.227V160.73L184.678 160.534L184.638 160.274V159.476L184.744 159.24L184.638 158.483L184.703 158.206L184.613 158.035L184.548 157.277V156.756L184.703 156.154L184.597 155.722L184.662 154.729L184.573 154.256L184.703 153.866L184.898 153.54L184.727 153.344L184.467 153.279L183.905 153.385L183.367 153.32L182.529 153.41L181.771 153.32L181.446 153.019L181.405 152.717L181.535 152.18L182.008 151.919L182.586 151.985H183.058L183.62 152.025L184.011 151.96H185.631L185.932 152.09L186.364 152.587L186.299 152.994L186.388 153.491L186.193 153.923L186.299 154.55V155.258L186.34 155.665V156.439L186.429 157.497L186.323 157.904V158.792L186.283 159.004L186.413 159.411L186.307 160.681L186.372 161.503L186.242 161.805L186.348 162.326L186.437 162.521L186.348 163.083L186.242 163.987L185.981 164.288L186.193 164.549L187.227 164.288L187.594 164.378L188.172 164.288L188.326 164.199L188.953 164.239L189.597 164.541V164.972L189.556 165.363L189.548 165.388Z" fill="white"/>
<path d="M202.983 165.884L202.486 165.925L202.209 165.901L201.607 165.941L201.216 165.876L200.809 165.64L200.613 165.274L200.508 164.842L200.353 164.687L199.962 165.078H199.767L199.4 165.42L198.773 165.591L198.431 165.803L198.171 165.778L197.698 165.974H197.096L195.996 165.868L195.198 165.567L194.962 165.396L194.832 165.2L194.376 164.964L193.985 164.337L193.749 163.515V162.586L194.482 161.552L194.547 161.398L194.808 161.121L195.28 160.991L196.273 160.689L196.493 160.583H197.356L197.658 160.624H198.048L198.309 160.689L198.57 160.665H199.172L199.644 160.795L200.247 161.056L200.353 160.925L200.263 160.73L200.174 160.274L200.239 159.305L200.084 158.979V158.613L199.807 158.157L199.351 157.856L198.96 157.53L197.967 157.465L197.128 157.554L196.42 157.774L196.013 158.23L195.801 158.963L195.606 159.224L195.174 159.5H194.808L194.588 159.46L194.221 159.305L194.132 159.004V158.531L194.286 158.23L194.327 157.994L194.759 157.261L195.361 156.724L195.687 156.553L196.249 156.422L196.338 156.268L197.307 156.178H198.276L198.985 156.072L199.547 156.227L200.003 156.422L200.41 156.528L200.866 156.919L201.273 157.351L201.534 157.807L201.623 158.043L201.859 158.67L201.77 159.248L201.941 159.785L202.03 160.258L201.941 160.836L202.047 161.544L201.892 162.106V163.376L201.933 163.938L202.087 164.394L202.543 164.549L203.146 164.419L203.423 164.508L203.528 164.94L203.488 165.461L203.276 165.697L202.999 165.803L202.975 165.868L202.983 165.884Z" fill="white"/>
<path d="M208.886 165.436L208.715 165.778L208.373 165.803L207.535 165.591L207.404 164.964L207.51 164.467L207.6 164.272L207.535 163.669L207.6 163.564L207.51 162.766L207.421 162.139V160.95L207.445 160.673L207.535 159.679L207.38 158.971L207.421 158.393L207.551 157.896L207.461 157.204L207.527 156.683V155.307L207.461 155.136L207.502 154.509V153.988L207.413 153.923L207.372 153.344L207.527 152.546L207.657 152.481L207.812 151.985L208.333 151.944L208.895 152.033L209.196 152.4V153.458L209.285 154.151L209.18 155.095L209.245 155.592L209.155 155.999L209.285 156.577L209.155 156.813L209.114 157.204L209.245 157.44L209.456 157.115L209.994 156.748L210.32 156.471L210.857 156.317L212.086 156.121L212.518 156.162L213.039 156.268L213.707 156.463L214.228 156.83H214.293L215.002 157.522L215.303 158.083L215.392 158.32L215.759 159.264L215.93 160.665L216.036 161.569L215.71 162.945L215.515 163.507L214.912 164.581L214.334 165.184L213.511 165.681L212.779 165.941H212.371L212.331 166.006L211.272 165.941L210.776 165.746H210.434L210.108 165.469L209.782 165.339L209.074 164.63H208.813L208.968 165.103L208.943 165.404L208.903 165.428L208.886 165.436Z" fill="white"/>
<path d="M226.182 165.021L225.856 165.323L225.188 165.713L224.496 165.884L224.325 165.819L223.869 165.909H223.177L222.876 165.868L222.102 165.673L221.972 165.583L221.776 165.363L221.198 165.021L221.092 164.63L220.767 164.199L220.571 164.093V163.385L220.4 162.977V161.707L220.36 161.406L220.49 160.697L220.465 160.372L220.506 160.282L220.441 159.289L220.376 158.963L220.441 158.32L220.335 158.018L220.425 157.587L220.384 157.497L220.58 156.805L220.97 156.374L221.296 156.349L221.728 156.39L222.07 156.716L222.2 157.79L222.159 158.499L222.224 158.996L222.135 159.338L222.175 159.704L222.11 159.94V160.868L222.216 161.276L222.281 161.748L222.07 162.22L222.2 163.043L222.355 163.368L222.444 163.759L222.745 164.101L222.9 164.207V164.402H223.657L224.366 164.508L224.732 164.419L225.376 164.313L225.547 164.101L226.304 163.93L226.581 163.955L226.605 163.629L226.385 162.961V161.837L226.475 161.365L226.41 160.592L226.516 160.201L226.41 159.704L226.475 159.338L226.345 158.841V158.385L226.434 157.823L226.499 157.782L226.369 157.18L226.581 156.707L226.858 156.431L227.248 156.341L227.851 156.447L228.063 156.667V157.098L228.128 157.505L228.217 158.474L228.128 159.053V159.549L228.063 160.282L228.193 160.673L228.038 161.748L228.144 162.481L228.038 162.758L228.144 163.279V164.94L227.949 165.803H227.387L226.931 165.738L226.801 165.632V164.598L226.711 164.508L226.174 165.005L226.182 165.021Z" fill="white"/>
<path d="M241.572 163.108L241.482 163.539L241.442 164.06L240.986 164.663L240.489 165.16L239.365 165.762H238.974L237.785 165.958H236.621L236.32 165.892L235.742 165.852L235.416 165.721H235.139L234.317 165.445L233.82 164.948L233.755 164.818L233.323 164.345L233.193 164.15L233.022 163.572L232.867 163.205L232.892 162.88L233.128 162.725L233.429 162.749L234.268 162.815L234.479 163.01L234.675 163.442L235.001 163.938L235.367 164.199L235.888 164.329L236.36 164.524L237.004 164.419H237.566L238.193 164.59L239.227 164.264L239.569 163.963L239.658 163.661L239.813 163.385L239.772 162.929L239.683 162.692L239.039 162.171L238.803 162.106L238.673 162.017L238.282 161.951L237.419 161.675L237.093 161.634H236.515L235.782 161.422L235.571 161.398L234.683 160.966L233.909 160.64L233.584 160.298L233.063 159.435L233.022 158.792L233.128 158.165L233.323 157.945L233.584 157.343L233.795 157.066L234.137 156.764L234.569 156.61L234.699 156.455L235.09 156.349L235.693 156.284L236.23 156.178L236.572 156.154L236.939 156.023L237.671 156.178L238.038 156.089L238.877 156.431L239.267 156.471L240.09 156.968L240.245 157.139L240.587 157.334L240.806 157.807L241.083 158.149L241.173 158.751L241.108 158.841L240.766 159.101L240.122 159.036L239.455 158.759L239.259 158.328L238.632 157.807L237.94 157.587L237.663 157.611L236.971 157.481L236.238 157.676L235.351 157.872L234.96 158.132L234.764 158.458L234.805 158.694L234.781 158.971L234.911 159.297L235.106 159.452L235.473 159.728L236.246 159.965L236.873 160.054L237.24 160.184L237.5 160.144L238.877 160.535L239.267 160.575L239.479 160.746L240.057 160.836L240.464 161.162L240.855 161.357L241.246 161.878L241.588 162.701L241.547 163.108V163.132L241.572 163.108Z" fill="white"/>
<path d="M122.003 119.878H105.823V148.019H122.003V119.878Z" fill="#D1A644"/>
</g>
<path d="M8.43166 88.5968H8.72107L9.29988 88.018C9.01048 87.5838 8.43166 87.1497 8.14225 87.1497C7.85285 87.4391 7.70814 88.018 7.70814 88.4521H7.99755L8.43166 88.5968ZM9.734 84.4004H8.72107V85.4133H10.0234C10.0234 85.2686 10.0234 85.1239 9.8787 85.1239V84.8345C9.8787 84.6898 9.734 84.6898 9.734 84.4004ZM10.6022 70.3641H10.8916L11.4704 69.7853C11.181 69.3512 10.6022 68.9171 10.3128 68.9171C10.0234 69.2065 9.8787 69.7853 9.8787 70.2194H10.1681L10.6022 70.3641ZM10.4575 78.1781C11.181 78.1781 12.4834 77.0205 12.4834 76.0075C12.4834 75.284 10.8916 74.7052 10.7469 74.7052C10.0234 74.7052 9.01048 76.1522 9.01048 76.8758C9.01048 77.3099 9.15518 78.1781 10.4575 78.1781ZM11.4704 94.819V93.8061L10.4575 93.6614L10.3128 94.6743C10.4575 94.6743 10.8916 94.819 11.4704 94.819ZM10.8916 90.0438V90.6226L12.3387 90.3332C12.0493 89.7544 11.4704 89.3203 11.0363 89.3203C10.8916 89.6097 10.8916 89.8991 10.8916 90.0438ZM21.1656 95.6872L20.008 95.3978V95.9767L21.1656 96.2661V95.6872ZM25.7961 100.028C25.9408 99.739 25.9408 99.5942 25.7961 99.4495C25.6514 99.3048 25.362 99.0154 25.2173 99.0154C25.2173 99.3048 25.2173 99.8837 25.5067 100.173C25.6514 100.173 25.7961 100.173 25.7961 100.028ZM31.0054 99.5942L31.8737 100.028L32.1631 99.4495L31.1501 99.0154L31.0054 99.5942ZM31.0054 107.987L32.0184 108.132L32.3078 107.698C32.1631 107.553 32.0184 107.553 32.0184 107.408H31.4396C31.1501 107.553 31.0054 107.842 31.0054 107.987ZM30.2819 103.212C30.2819 103.501 30.4266 104.514 31.4396 104.514C31.729 104.514 33.176 104.225 33.176 103.212C33.176 103.067 32.5972 102.054 31.8737 102.054C31.8737 102.054 30.2819 102.488 30.2819 103.212ZM4.81407 53.5785H5.82699V52.5655C5.39288 52.5655 4.81407 53.1444 4.81407 53.5785ZM6.26111 59.5113L5.82699 61.1031L6.69522 61.9713C7.27403 61.6819 7.99755 61.1031 7.99755 60.6689C7.99755 60.3795 7.70814 60.0901 7.27403 59.9454C6.83992 59.8007 6.55051 59.8007 6.26111 59.5113ZM9.44459 64.7206H8.43166V65.7336H9.734C9.734 65.5889 9.734 65.4442 9.58929 65.4442V65.1548C9.58929 65.0101 9.44459 65.0101 9.44459 64.7206ZM10.7469 55.0255L10.1681 54.4467H9.15518V55.1702C9.15518 55.8937 9.8787 56.0384 10.1681 56.0384C10.4575 55.8937 10.7469 55.3149 10.7469 55.0255ZM11.0363 62.8395H10.1681V63.563H11.0363V62.8395ZM11.3257 82.5192H10.4575V83.2427H11.3257V82.5192ZM9.15518 52.5655H9.734V51.6973H9.15518V52.5655ZM13.0622 71.8111V72.3899L14.5092 72.1005C14.2198 71.5217 13.641 71.0876 13.2069 71.0876C13.0622 71.377 13.0622 71.6664 13.0622 71.8111ZM27.5326 99.4495C27.6773 99.5942 27.822 99.5942 27.9667 99.5942H28.4008C28.4008 99.3048 28.5455 99.3048 28.6902 99.0154C28.8349 99.0154 28.8349 98.8707 28.9796 98.5813C28.4008 98.5813 28.2561 98.5813 28.1114 98.726C27.822 98.8707 27.6773 99.1601 27.5326 99.4495ZM9.44459 45.9092C9.44459 45.9092 9.44459 46.9221 9.734 47.2115C10.0234 47.2115 10.4575 47.0668 10.7469 46.7774C10.4575 46.1986 9.8787 45.9092 9.44459 45.9092ZM2.2094 104.514L2.3541 102.633L2.0647 94.819C2.0647 94.2402 2.3541 91.9249 2.3541 91.4908V91.0567L2.2094 90.3332V89.8991C2.2094 89.465 2.64351 88.5968 2.2094 88.1627L2.49881 75.5734C2.93292 75.1393 2.78822 74.2711 2.78822 73.837C2.78822 73.4029 2.64351 68.9171 2.49881 66.023V37.5163L2.0647 36.214V35.3458L2.2094 34.4776V34.0435C2.35411 32.7411 2.78822 30.5706 2.49881 28.9788C2.3541 28.4 2.3541 28.1106 2.3541 27.3871C2.3541 27.0977 2.3541 26.0848 2.49881 25.6506C2.64351 24.493 2.49881 22.3225 2.49881 21.8883L3.07762 15.5214C3.07762 13.2061 2.49881 9.73323 2.93292 6.26035C2.64351 4.23449 3.07762 2.93216 6.1164 3.07686C6.55051 3.07686 11.181 3.22157 11.7598 3.22157H16.2457C17.4033 3.22157 19.4291 3.65568 19.4291 6.69446L19.1397 26.953V27.2424L18.8503 27.8212V29.5576L18.7056 32.4517V33.8988C18.7056 34.767 18.5609 36.0693 18.7056 37.3716C18.7056 38.0952 18.5609 39.5422 18.5609 40.6998C18.4162 41.2786 18.2715 43.3045 18.2715 44.028C18.2715 44.6068 18.4162 45.0409 18.2715 45.7645C18.1268 46.3433 18.1268 47.5009 18.1268 48.2244C18.1268 49.2374 17.9821 50.8291 17.9821 51.2632C17.9821 52.2761 17.9821 51.9867 18.1268 53.2891C18.1268 53.4338 17.9821 56.6172 17.9821 57.1961V65.8783C18.4162 66.4571 17.548 66.3124 17.9821 67.1806C18.1268 67.47 18.1268 68.1935 17.9821 68.6277C18.1268 69.0618 17.9821 70.0747 17.9821 70.5088C17.9821 72.2452 17.548 71.8111 17.9821 74.5605C17.548 75.284 17.8374 76.7311 17.8374 77.3099C17.8374 77.744 18.2715 79.0463 18.1268 80.0592V80.6381L17.9821 82.0851V82.6639C18.2715 83.098 17.548 83.8216 17.9821 83.9663C17.9821 84.6898 17.8374 85.7027 17.8374 86.1368C17.8374 87.005 17.548 90.4779 17.548 91.0567C17.548 91.6355 17.4033 92.2144 18.7056 92.6485L22.902 92.7932L27.0984 92.6485L32.3078 92.9379L35.4913 92.7932L36.9383 92.9379C38.6747 93.2273 39.2536 94.2402 38.9641 95.6872L39.1089 97.7131V106.54C39.1089 107.698 39.1089 108.711 37.3724 108.855L32.0184 109.289C31.4396 109.289 23.6256 108.566 20.4421 109C19.8633 109.145 17.8374 109.289 17.8374 109.289L16.9692 109C16.8245 108.711 16.101 109.145 15.2327 109C14.5092 108.855 13.9304 109 13.3516 109C12.9175 109 10.3128 109.434 9.734 109.434C9.44459 109.434 6.26111 109.145 4.09055 109.145C2.64351 109.145 2.2094 108.855 2.2094 107.553V104.514ZM5.39288 71.9558C5.24818 71.6664 5.24818 71.377 5.39288 71.0876C5.53759 71.377 5.82699 71.6664 5.39288 71.9558Z" fill="white"/>
<defs>
<clipPath id="clip0_188_45">
<rect width="241.621" height="169.728" fill="white"/>
</clipPath>
</defs>
</svg>
